<mxfile host="app.diagrams.net" agent="Mozilla/5.0 (Windows NT 10.0; Win64; x64) AppleWebKit/537.36 (KHTML, like Gecko) Chrome/135.0.0.0 Safari/537.36" version="27.0.1">
  <diagram name="Page-1" id="OqS1zpWbOdB1CPwai2Lr">
    <mxGraphModel dx="4703" dy="2859" grid="0" gridSize="10" guides="1" tooltips="1" connect="1" arrows="1" fold="1" page="1" pageScale="1" pageWidth="850" pageHeight="1100" background="#ffffff" math="0" shadow="1">
      <root>
        <mxCell id="0" />
        <mxCell id="1" parent="0" />
        <mxCell id="-ft_6paZabJSjul7Jqng-1" value="" style="shape=folder;fontStyle=1;spacingTop=10;tabWidth=215;tabHeight=29;tabPosition=left;html=1;whiteSpace=wrap;" parent="1" vertex="1">
          <mxGeometry x="-1849" y="-243" width="424.5" height="243" as="geometry" />
        </mxCell>
        <mxCell id="Jv0Wbk9GjLyNe4X2V1_I-191" style="edgeStyle=orthogonalEdgeStyle;rounded=0;orthogonalLoop=1;jettySize=auto;html=1;exitX=0.5;exitY=1;exitDx=0;exitDy=0;endArrow=none;startFill=0;" parent="1" source="H2AgAY1qbFDTJF13Do6O-21" target="U0l2AVK42Dn3-A5_-HGm-49" edge="1">
          <mxGeometry relative="1" as="geometry">
            <Array as="points">
              <mxPoint x="-1682" y="710" />
            </Array>
          </mxGeometry>
        </mxCell>
        <mxCell id="-ft_6paZabJSjul7Jqng-97" style="edgeStyle=orthogonalEdgeStyle;rounded=0;orthogonalLoop=1;jettySize=auto;html=1;exitX=0.5;exitY=0;exitDx=0;exitDy=0;entryX=0;entryY=0.5;entryDx=0;entryDy=0;fontSize=12;startSize=8;endSize=8;endArrow=none;startFill=0;" parent="1" source="H2AgAY1qbFDTJF13Do6O-21" target="-ft_6paZabJSjul7Jqng-2" edge="1">
          <mxGeometry relative="1" as="geometry" />
        </mxCell>
        <mxCell id="H2AgAY1qbFDTJF13Do6O-21" value="RecommendationController&lt;div&gt;&lt;br&gt;&lt;/div&gt;" style="swimlane;fontStyle=1;align=center;verticalAlign=top;childLayout=stackLayout;horizontal=1;startSize=26;horizontalStack=0;resizeParent=1;resizeParentMax=0;resizeLast=0;collapsible=1;marginBottom=0;whiteSpace=wrap;html=1;fillColor=light-dark(#FFFF00,#FFFF33);strokeColor=#000000;fontColor=default;" parent="1" vertex="1">
          <mxGeometry x="-1862" y="295" width="360" height="86" as="geometry">
            <mxRectangle x="-1881.5" y="603" width="185" height="26" as="alternateBounds" />
          </mxGeometry>
        </mxCell>
        <mxCell id="H2AgAY1qbFDTJF13Do6O-23" value="" style="line;strokeWidth=1;fillColor=light-dark(#FFFF00,#FFFF33);align=left;verticalAlign=middle;spacingTop=-1;spacingLeft=3;spacingRight=3;rotatable=0;labelPosition=right;points=[];portConstraint=eastwest;strokeColor=#000000;fontColor=default;" parent="H2AgAY1qbFDTJF13Do6O-21" vertex="1">
          <mxGeometry y="26" width="360" height="8" as="geometry" />
        </mxCell>
        <mxCell id="TtvQXbVJvoLlcyAV71Qk-136" value="+ RecommendationController()" style="text;strokeColor=#000000;fillColor=light-dark(#FFFF00,#FFFF33);align=left;verticalAlign=top;spacingLeft=4;spacingRight=4;overflow=hidden;rotatable=0;points=[[0,0.5],[1,0.5]];portConstraint=eastwest;whiteSpace=wrap;html=1;fontColor=default;" parent="H2AgAY1qbFDTJF13Do6O-21" vertex="1">
          <mxGeometry y="34" width="360" height="26" as="geometry" />
        </mxCell>
        <mxCell id="8rEBr2aL7rWZqsQNYB0q-71" value="+ getEventFeed(accountId: int): List&amp;lt;EventEntity&amp;gt;" style="text;strokeColor=#000000;fillColor=light-dark(#FFFF00,#FFFF33);align=left;verticalAlign=top;spacingLeft=4;spacingRight=4;overflow=hidden;rotatable=0;points=[[0,0.5],[1,0.5]];portConstraint=eastwest;whiteSpace=wrap;html=1;fontColor=default;" parent="H2AgAY1qbFDTJF13Do6O-21" vertex="1">
          <mxGeometry y="60" width="360" height="26" as="geometry" />
        </mxCell>
        <mxCell id="U0l2AVK42Dn3-A5_-HGm-49" value="ProxyDBController" style="swimlane;fontStyle=1;align=center;verticalAlign=top;childLayout=stackLayout;horizontal=1;startSize=26;horizontalStack=0;resizeParent=1;resizeParentMax=0;resizeLast=0;collapsible=1;marginBottom=0;whiteSpace=wrap;html=1;strokeColor=default;shadow=1;fillColor=#FFFF00;gradientColor=#FFB200;" parent="1" vertex="1">
          <mxGeometry x="-2460" y="295" width="500" height="974" as="geometry">
            <mxRectangle x="-2300" y="735" width="266" height="66" as="alternateBounds" />
          </mxGeometry>
        </mxCell>
        <mxCell id="U0l2AVK42Dn3-A5_-HGm-45" value="+ id: int" style="text;strokeColor=default;fillColor=none;align=left;verticalAlign=top;spacingLeft=4;spacingRight=4;overflow=hidden;rotatable=0;points=[[0,0.5],[1,0.5]];portConstraint=eastwest;whiteSpace=wrap;html=1;shadow=1;fontStyle=0" parent="U0l2AVK42Dn3-A5_-HGm-49" vertex="1">
          <mxGeometry y="26" width="500" height="26" as="geometry" />
        </mxCell>
        <mxCell id="U0l2AVK42Dn3-A5_-HGm-46" value="+ dbConnection: DatabaseConnection" style="text;strokeColor=default;fillColor=none;align=left;verticalAlign=top;spacingLeft=4;spacingRight=4;overflow=hidden;rotatable=0;points=[[0,0.5],[1,0.5]];portConstraint=eastwest;whiteSpace=wrap;html=1;shadow=1;fontStyle=0" parent="U0l2AVK42Dn3-A5_-HGm-49" vertex="1">
          <mxGeometry y="52" width="500" height="26" as="geometry" />
        </mxCell>
        <mxCell id="U0l2AVK42Dn3-A5_-HGm-47" value="- cache: Map&amp;lt;String, Object&amp;gt;" style="text;strokeColor=default;fillColor=none;align=left;verticalAlign=top;spacingLeft=4;spacingRight=4;overflow=hidden;rotatable=0;points=[[0,0.5],[1,0.5]];portConstraint=eastwest;whiteSpace=wrap;html=1;shadow=1;fontStyle=0" parent="U0l2AVK42Dn3-A5_-HGm-49" vertex="1">
          <mxGeometry y="78" width="500" height="26" as="geometry" />
        </mxCell>
        <mxCell id="U0l2AVK42Dn3-A5_-HGm-48" value="- lastFetched: LocalDateTIme" style="text;strokeColor=default;fillColor=none;align=left;verticalAlign=top;spacingLeft=4;spacingRight=4;overflow=hidden;rotatable=0;points=[[0,0.5],[1,0.5]];portConstraint=eastwest;whiteSpace=wrap;html=1;shadow=1;fontStyle=0" parent="U0l2AVK42Dn3-A5_-HGm-49" vertex="1">
          <mxGeometry y="104" width="500" height="26" as="geometry" />
        </mxCell>
        <mxCell id="U0l2AVK42Dn3-A5_-HGm-51" value="" style="line;strokeWidth=1;fillColor=none;align=left;verticalAlign=middle;spacingTop=-1;spacingLeft=3;spacingRight=3;rotatable=0;labelPosition=right;points=[];portConstraint=eastwest;strokeColor=default;shadow=1;fontStyle=0" parent="U0l2AVK42Dn3-A5_-HGm-49" vertex="1">
          <mxGeometry y="130" width="500" height="8" as="geometry" />
        </mxCell>
        <mxCell id="U0l2AVK42Dn3-A5_-HGm-53" value="+ ProxyDBController()" style="text;strokeColor=#000000;fillColor=light-dark(#FFFF00,#FFFF00);align=left;verticalAlign=top;spacingLeft=4;spacingRight=4;overflow=hidden;rotatable=0;points=[[0,0.5],[1,0.5]];portConstraint=eastwest;whiteSpace=wrap;html=1;shadow=1;fontColor=#000000;fontStyle=0;gradientColor=#FFB200;" parent="U0l2AVK42Dn3-A5_-HGm-49" vertex="1">
          <mxGeometry y="138" width="500" height="26" as="geometry" />
        </mxCell>
        <mxCell id="CeRw56cfuyo3TGLGe_MA-16" value="+ getAccountEvents(accountId: int): List&amp;lt;EventEntity&amp;gt;" style="text;strokeColor=#9673a6;fillColor=#e1d5e7;align=left;verticalAlign=top;spacingLeft=4;spacingRight=4;overflow=hidden;rotatable=0;points=[[0,0.5],[1,0.5]];portConstraint=eastwest;whiteSpace=wrap;html=1;shadow=1;fontStyle=0" parent="U0l2AVK42Dn3-A5_-HGm-49" vertex="1">
          <mxGeometry y="164" width="500" height="26" as="geometry" />
        </mxCell>
        <mxCell id="CeRw56cfuyo3TGLGe_MA-15" value="+ getVenueEvents(venueId: int): List&amp;lt;EventEntity&amp;gt;" style="text;strokeColor=#9673a6;fillColor=#e1d5e7;align=left;verticalAlign=top;spacingLeft=4;spacingRight=4;overflow=hidden;rotatable=0;points=[[0,0.5],[1,0.5]];portConstraint=eastwest;whiteSpace=wrap;html=1;shadow=1;fontStyle=0" parent="U0l2AVK42Dn3-A5_-HGm-49" vertex="1">
          <mxGeometry y="190" width="500" height="30" as="geometry" />
        </mxCell>
        <mxCell id="CeRw56cfuyo3TGLGe_MA-13" value="+ getEventFeed(accountId: int): EventEntity" style="text;strokeColor=#9673a6;fillColor=#e1d5e7;align=left;verticalAlign=top;spacingLeft=4;spacingRight=4;overflow=hidden;rotatable=0;points=[[0,0.5],[1,0.5]];portConstraint=eastwest;whiteSpace=wrap;html=1;shadow=1;fontStyle=0" parent="U0l2AVK42Dn3-A5_-HGm-49" vertex="1">
          <mxGeometry y="220" width="500" height="26" as="geometry" />
        </mxCell>
        <mxCell id="CeRw56cfuyo3TGLGe_MA-12" value="+ getNearbyEvents(location: String): List&amp;lt;EventEntity&amp;gt;" style="text;strokeColor=#9673a6;fillColor=#e1d5e7;align=left;verticalAlign=top;spacingLeft=4;spacingRight=4;overflow=hidden;rotatable=0;points=[[0,0.5],[1,0.5]];portConstraint=eastwest;whiteSpace=wrap;html=1;shadow=1;fontStyle=0" parent="U0l2AVK42Dn3-A5_-HGm-49" vertex="1">
          <mxGeometry y="246" width="500" height="26" as="geometry" />
        </mxCell>
        <mxCell id="CeRw56cfuyo3TGLGe_MA-8" value="+ getEventsByFilters(filters: String[]): List&amp;lt;EventEntity&amp;gt;" style="text;align=left;verticalAlign=top;spacingLeft=4;spacingRight=4;overflow=hidden;rotatable=0;points=[[0,0.5],[1,0.5]];portConstraint=eastwest;whiteSpace=wrap;html=1;fillColor=#e1d5e7;strokeColor=#9673a6;shadow=1;fontStyle=0" parent="U0l2AVK42Dn3-A5_-HGm-49" vertex="1">
          <mxGeometry y="272" width="500" height="26" as="geometry" />
        </mxCell>
        <mxCell id="8rEBr2aL7rWZqsQNYB0q-47" value="+ getEventsByKeywords(keywords: String[]): List&amp;lt;EventEntity&amp;gt;" style="text;align=left;verticalAlign=top;spacingLeft=4;spacingRight=4;overflow=hidden;rotatable=0;points=[[0,0.5],[1,0.5]];portConstraint=eastwest;whiteSpace=wrap;html=1;fillColor=#e1d5e7;strokeColor=#9673a6;shadow=1;fontStyle=0" parent="U0l2AVK42Dn3-A5_-HGm-49" vertex="1">
          <mxGeometry y="298" width="500" height="26" as="geometry" />
        </mxCell>
        <mxCell id="CeRw56cfuyo3TGLGe_MA-11" value="+ getLikedEvents(accountId: int): List&amp;lt;EventEntity&amp;gt;" style="text;strokeColor=#9673a6;fillColor=#e1d5e7;align=left;verticalAlign=top;spacingLeft=4;spacingRight=4;overflow=hidden;rotatable=0;points=[[0,0.5],[1,0.5]];portConstraint=eastwest;whiteSpace=wrap;html=1;shadow=1;fontStyle=0" parent="U0l2AVK42Dn3-A5_-HGm-49" vertex="1">
          <mxGeometry y="324" width="500" height="26" as="geometry" />
        </mxCell>
        <mxCell id="CeRw56cfuyo3TGLGe_MA-10" value="+ getAllEvents(): List&amp;lt;EventEntity&amp;gt;" style="text;strokeColor=#9673a6;fillColor=#e1d5e7;align=left;verticalAlign=top;spacingLeft=4;spacingRight=4;overflow=hidden;rotatable=0;points=[[0,0.5],[1,0.5]];portConstraint=eastwest;whiteSpace=wrap;html=1;shadow=1;fontStyle=0" parent="U0l2AVK42Dn3-A5_-HGm-49" vertex="1">
          <mxGeometry y="350" width="500" height="26" as="geometry" />
        </mxCell>
        <mxCell id="CeRw56cfuyo3TGLGe_MA-9" value="+ getNotifiedEvents(accountId: int): List&amp;lt;EventEntity&amp;gt;" style="text;strokeColor=#9673a6;fillColor=#e1d5e7;align=left;verticalAlign=top;spacingLeft=4;spacingRight=4;overflow=hidden;rotatable=0;points=[[0,0.5],[1,0.5]];portConstraint=eastwest;whiteSpace=wrap;html=1;shadow=1;fontStyle=0" parent="U0l2AVK42Dn3-A5_-HGm-49" vertex="1">
          <mxGeometry y="376" width="500" height="26" as="geometry" />
        </mxCell>
        <mxCell id="CeRw56cfuyo3TGLGe_MA-17" value="+ deleteEvent(eventId: int): void" style="text;strokeColor=default;fillColor=#b0e3e6;align=left;verticalAlign=top;spacingLeft=4;spacingRight=4;overflow=hidden;rotatable=0;points=[[0,0.5],[1,0.5]];portConstraint=eastwest;whiteSpace=wrap;html=1;shadow=1;fontStyle=0" parent="U0l2AVK42Dn3-A5_-HGm-49" vertex="1">
          <mxGeometry y="402" width="500" height="26" as="geometry" />
        </mxCell>
        <mxCell id="CeRw56cfuyo3TGLGe_MA-18" value="+ createEvent(event: EventEntity): void" style="text;strokeColor=default;fillColor=#b0e3e6;align=left;verticalAlign=top;spacingLeft=4;spacingRight=4;overflow=hidden;rotatable=0;points=[[0,0.5],[1,0.5]];portConstraint=eastwest;whiteSpace=wrap;html=1;shadow=1;fontStyle=0" parent="U0l2AVK42Dn3-A5_-HGm-49" vertex="1">
          <mxGeometry y="428" width="500" height="26" as="geometry" />
        </mxCell>
        <mxCell id="CeRw56cfuyo3TGLGe_MA-19" value="+ editEvent(event: EventEntity): void" style="text;strokeColor=default;fillColor=#b0e3e6;align=left;verticalAlign=top;spacingLeft=4;spacingRight=4;overflow=hidden;rotatable=0;points=[[0,0.5],[1,0.5]];portConstraint=eastwest;whiteSpace=wrap;html=1;shadow=1;fontStyle=0" parent="U0l2AVK42Dn3-A5_-HGm-49" vertex="1">
          <mxGeometry y="454" width="500" height="26" as="geometry" />
        </mxCell>
        <mxCell id="CeRw56cfuyo3TGLGe_MA-20" value="+ getΑccountById(accountId: int): AccountEntity" style="text;strokeColor=#9673a6;fillColor=#e1d5e7;align=left;verticalAlign=top;spacingLeft=4;spacingRight=4;overflow=hidden;rotatable=0;points=[[0,0.5],[1,0.5]];portConstraint=eastwest;whiteSpace=wrap;html=1;shadow=1;fontStyle=0" parent="U0l2AVK42Dn3-A5_-HGm-49" vertex="1">
          <mxGeometry y="480" width="500" height="26" as="geometry" />
        </mxCell>
        <mxCell id="CeRw56cfuyo3TGLGe_MA-24" value="+ getFollowingEntities(accountId: int): Map&amp;lt;String, AccountEntity/VenueEntity&amp;gt;" style="text;strokeColor=default;fillColor=#d0cee2;align=left;verticalAlign=top;spacingLeft=4;spacingRight=4;overflow=hidden;rotatable=0;points=[[0,0.5],[1,0.5]];portConstraint=eastwest;whiteSpace=wrap;html=1;shadow=1;fontStyle=0" parent="U0l2AVK42Dn3-A5_-HGm-49" vertex="1">
          <mxGeometry y="506" width="500" height="26" as="geometry" />
        </mxCell>
        <mxCell id="CeRw56cfuyo3TGLGe_MA-23" value="+ getEventVenue(eventId: int): VenueEntity" style="text;strokeColor=default;fillColor=#d0cee2;align=left;verticalAlign=top;spacingLeft=4;spacingRight=4;overflow=hidden;rotatable=0;points=[[0,0.5],[1,0.5]];portConstraint=eastwest;whiteSpace=wrap;html=1;shadow=1;fontStyle=0" parent="U0l2AVK42Dn3-A5_-HGm-49" vertex="1">
          <mxGeometry y="532" width="500" height="26" as="geometry" />
        </mxCell>
        <mxCell id="CeRw56cfuyo3TGLGe_MA-22" value="+ getEventOwner(eventId: int): AccountEntity" style="text;strokeColor=default;fillColor=#d0cee2;align=left;verticalAlign=top;spacingLeft=4;spacingRight=4;overflow=hidden;rotatable=0;points=[[0,0.5],[1,0.5]];portConstraint=eastwest;whiteSpace=wrap;html=1;shadow=1;fontStyle=0" parent="U0l2AVK42Dn3-A5_-HGm-49" vertex="1">
          <mxGeometry y="558" width="500" height="26" as="geometry" />
        </mxCell>
        <mxCell id="CeRw56cfuyo3TGLGe_MA-21" value="+ getEventDetails(eventId: int): EventEntity" style="text;strokeColor=default;fillColor=#d0cee2;align=left;verticalAlign=top;spacingLeft=4;spacingRight=4;overflow=hidden;rotatable=0;points=[[0,0.5],[1,0.5]];portConstraint=eastwest;whiteSpace=wrap;html=1;shadow=1;fontStyle=0" parent="U0l2AVK42Dn3-A5_-HGm-49" vertex="1">
          <mxGeometry y="584" width="500" height="26" as="geometry" />
        </mxCell>
        <mxCell id="NR3JPTZGQrciZuihDhtA-40" value="+ searchVenuesByName(name: String): List&amp;lt;VenueEntity&amp;gt;" style="text;align=left;verticalAlign=top;spacingLeft=4;spacingRight=4;overflow=hidden;rotatable=0;points=[[0,0.5],[1,0.5]];portConstraint=eastwest;whiteSpace=wrap;html=1;shadow=1;fillColor=#fff2cc;strokeColor=#d6b656;fontStyle=0" parent="U0l2AVK42Dn3-A5_-HGm-49" vertex="1">
          <mxGeometry y="610" width="500" height="26" as="geometry" />
        </mxCell>
        <mxCell id="NR3JPTZGQrciZuihDhtA-39" value="+ searchAccountsByName(name: String): List&amp;lt;AccountEntity&amp;gt;" style="text;align=left;verticalAlign=top;spacingLeft=4;spacingRight=4;overflow=hidden;rotatable=0;points=[[0,0.5],[1,0.5]];portConstraint=eastwest;whiteSpace=wrap;html=1;shadow=1;fillColor=#fff2cc;strokeColor=#d6b656;fontStyle=0" parent="U0l2AVK42Dn3-A5_-HGm-49" vertex="1">
          <mxGeometry y="636" width="500" height="26" as="geometry" />
        </mxCell>
        <mxCell id="CeRw56cfuyo3TGLGe_MA-36" value="+ rejectAccountVerification(accountId: int, message: String): void" style="text;strokeColor=#b85450;fillColor=#f8cecc;align=left;verticalAlign=top;spacingLeft=4;spacingRight=4;overflow=hidden;rotatable=0;points=[[0,0.5],[1,0.5]];portConstraint=eastwest;whiteSpace=wrap;html=1;shadow=1;fontStyle=0" parent="U0l2AVK42Dn3-A5_-HGm-49" vertex="1">
          <mxGeometry y="662" width="500" height="26" as="geometry" />
        </mxCell>
        <mxCell id="CeRw56cfuyo3TGLGe_MA-35" value="+ verifyAccount(accountId: int): void" style="text;strokeColor=#b85450;fillColor=#f8cecc;align=left;verticalAlign=top;spacingLeft=4;spacingRight=4;overflow=hidden;rotatable=0;points=[[0,0.5],[1,0.5]];portConstraint=eastwest;whiteSpace=wrap;html=1;shadow=1;fontStyle=0" parent="U0l2AVK42Dn3-A5_-HGm-49" vertex="1">
          <mxGeometry y="688" width="500" height="26" as="geometry" />
        </mxCell>
        <mxCell id="CeRw56cfuyo3TGLGe_MA-33" value="+ isAccountVerified(accountId: int): bool" style="text;strokeColor=#b85450;fillColor=#f8cecc;align=left;verticalAlign=top;spacingLeft=4;spacingRight=4;overflow=hidden;rotatable=0;points=[[0,0.5],[1,0.5]];portConstraint=eastwest;whiteSpace=wrap;html=1;shadow=1;fontStyle=0" parent="U0l2AVK42Dn3-A5_-HGm-49" vertex="1">
          <mxGeometry y="714" width="500" height="26" as="geometry" />
        </mxCell>
        <mxCell id="CeRw56cfuyo3TGLGe_MA-37" value="+ getVerificationStatus(accountId: int): VerificationStatus" style="text;strokeColor=#b85450;fillColor=#f8cecc;align=left;verticalAlign=top;spacingLeft=4;spacingRight=4;overflow=hidden;rotatable=0;points=[[0,0.5],[1,0.5]];portConstraint=eastwest;whiteSpace=wrap;html=1;shadow=1;fontStyle=0" parent="U0l2AVK42Dn3-A5_-HGm-49" vertex="1">
          <mxGeometry y="740" width="500" height="26" as="geometry" />
        </mxCell>
        <mxCell id="CeRw56cfuyo3TGLGe_MA-38" value="+ updateVerificationRequest(accountId: int, files: String[]): void" style="text;strokeColor=#b85450;fillColor=#f8cecc;align=left;verticalAlign=top;spacingLeft=4;spacingRight=4;overflow=hidden;rotatable=0;points=[[0,0.5],[1,0.5]];portConstraint=eastwest;whiteSpace=wrap;html=1;shadow=1;fontStyle=0" parent="U0l2AVK42Dn3-A5_-HGm-49" vertex="1">
          <mxGeometry y="766" width="500" height="26" as="geometry" />
        </mxCell>
        <mxCell id="CeRw56cfuyo3TGLGe_MA-34" value="+ getVerificationRequests(): List&amp;lt;VerificationEntity&amp;gt;" style="text;strokeColor=#b85450;fillColor=#f8cecc;align=left;verticalAlign=top;spacingLeft=4;spacingRight=4;overflow=hidden;rotatable=0;points=[[0,0.5],[1,0.5]];portConstraint=eastwest;whiteSpace=wrap;html=1;shadow=1;fontStyle=0" parent="U0l2AVK42Dn3-A5_-HGm-49" vertex="1">
          <mxGeometry y="792" width="500" height="26" as="geometry" />
        </mxCell>
        <mxCell id="CeRw56cfuyo3TGLGe_MA-29" value="+ getAccountReviews(accountId: int): List&amp;lt;ReviewEntity&amp;gt;" style="text;strokeColor=#d6b656;fillColor=#fff2cc;align=left;verticalAlign=top;spacingLeft=4;spacingRight=4;overflow=hidden;rotatable=0;points=[[0,0.5],[1,0.5]];portConstraint=eastwest;whiteSpace=wrap;html=1;shadow=1;fontStyle=0" parent="U0l2AVK42Dn3-A5_-HGm-49" vertex="1">
          <mxGeometry y="818" width="500" height="26" as="geometry" />
        </mxCell>
        <mxCell id="CeRw56cfuyo3TGLGe_MA-28" value="+ createReview(review: ReviewEntity): void" style="text;strokeColor=#d6b656;fillColor=#fff2cc;align=left;verticalAlign=top;spacingLeft=4;spacingRight=4;overflow=hidden;rotatable=0;points=[[0,0.5],[1,0.5]];portConstraint=eastwest;whiteSpace=wrap;html=1;shadow=1;fontStyle=0" parent="U0l2AVK42Dn3-A5_-HGm-49" vertex="1">
          <mxGeometry y="844" width="500" height="26" as="geometry" />
        </mxCell>
        <mxCell id="CeRw56cfuyo3TGLGe_MA-27" value="+ editReview(review: ReviewEntity): void" style="text;strokeColor=#d6b656;fillColor=#fff2cc;align=left;verticalAlign=top;spacingLeft=4;spacingRight=4;overflow=hidden;rotatable=0;points=[[0,0.5],[1,0.5]];portConstraint=eastwest;whiteSpace=wrap;html=1;shadow=1;fontStyle=0" parent="U0l2AVK42Dn3-A5_-HGm-49" vertex="1">
          <mxGeometry y="870" width="500" height="26" as="geometry" />
        </mxCell>
        <mxCell id="CeRw56cfuyo3TGLGe_MA-26" value="+ deleteReview(reviewId: int): void" style="text;strokeColor=#d6b656;fillColor=#fff2cc;align=left;verticalAlign=top;spacingLeft=4;spacingRight=4;overflow=hidden;rotatable=0;points=[[0,0.5],[1,0.5]];portConstraint=eastwest;whiteSpace=wrap;html=1;shadow=1;fontStyle=0" parent="U0l2AVK42Dn3-A5_-HGm-49" vertex="1">
          <mxGeometry y="896" width="500" height="26" as="geometry" />
        </mxCell>
        <mxCell id="CeRw56cfuyo3TGLGe_MA-25" value="+ getEventReview(eventId: int): List&amp;lt;ReniewEntity&amp;gt;" style="text;strokeColor=#d6b656;fillColor=#fff2cc;align=left;verticalAlign=top;spacingLeft=4;spacingRight=4;overflow=hidden;rotatable=0;points=[[0,0.5],[1,0.5]];portConstraint=eastwest;whiteSpace=wrap;html=1;shadow=1;fontStyle=0" parent="U0l2AVK42Dn3-A5_-HGm-49" vertex="1">
          <mxGeometry y="922" width="500" height="26" as="geometry" />
        </mxCell>
        <mxCell id="CeRw56cfuyo3TGLGe_MA-40" value="- updateCache(): void" style="text;strokeColor=default;fillColor=none;align=left;verticalAlign=top;spacingLeft=4;spacingRight=4;overflow=hidden;rotatable=0;points=[[0,0.5],[1,0.5]];portConstraint=eastwest;whiteSpace=wrap;html=1;shadow=1;fontStyle=0" parent="U0l2AVK42Dn3-A5_-HGm-49" vertex="1">
          <mxGeometry y="948" width="500" height="26" as="geometry" />
        </mxCell>
        <mxCell id="GOw8maG6rHlXjGwnNqGd-124" value="&amp;nbsp;" style="text;whiteSpace=wrap;html=1;" parent="1" vertex="1">
          <mxGeometry x="-3365.666666666666" y="-1314.9966666666664" width="31" height="36" as="geometry" />
        </mxCell>
        <mxCell id="EfEoNx7hLKVCC5iEywaP-38" style="edgeStyle=orthogonalEdgeStyle;rounded=0;orthogonalLoop=1;jettySize=auto;html=1;exitX=1;exitY=0.5;exitDx=0;exitDy=0;entryX=1;entryY=0.5;entryDx=0;entryDy=0;endArrow=none;startFill=0;" parent="1" edge="1">
          <mxGeometry relative="1" as="geometry">
            <mxPoint x="-1978" y="379.99999999999955" as="sourcePoint" />
          </mxGeometry>
        </mxCell>
        <mxCell id="2QyLJqX_78qw9PrIMGJR-37" value="1" style="text;html=1;align=center;verticalAlign=middle;resizable=0;points=[];autosize=1;strokeColor=none;fillColor=none;" parent="1" vertex="1">
          <mxGeometry x="-1948" y="688" width="25" height="26" as="geometry" />
        </mxCell>
        <mxCell id="2QyLJqX_78qw9PrIMGJR-38" value="1" style="text;html=1;align=center;verticalAlign=middle;resizable=0;points=[];autosize=1;strokeColor=none;fillColor=none;" parent="1" vertex="1">
          <mxGeometry x="-1674" y="393" width="25" height="26" as="geometry" />
        </mxCell>
        <mxCell id="_kPhk2gCEdoSoz-p3HK3-1" value="" style="shape=folder;fontStyle=1;spacingTop=10;tabWidth=205;tabHeight=34;tabPosition=left;html=1;whiteSpace=wrap;" parent="1" vertex="1">
          <mxGeometry x="-1818" y="785" width="428" height="270" as="geometry" />
        </mxCell>
        <mxCell id="_kPhk2gCEdoSoz-p3HK3-2" value="EventEntity" style="swimlane;fontStyle=1;align=center;verticalAlign=top;childLayout=stackLayout;horizontal=1;startSize=26;horizontalStack=0;resizeParent=1;resizeParentMax=0;resizeLast=0;collapsible=1;marginBottom=0;whiteSpace=wrap;html=1;fillColor=#00FF51;strokeColor=#000000;fontColor=#000000;" parent="1" vertex="1" collapsed="1">
          <mxGeometry x="-1571.5" y="865.62" width="150" height="26" as="geometry">
            <mxRectangle x="-2776" y="2017" width="320" height="712" as="alternateBounds" />
          </mxGeometry>
        </mxCell>
        <mxCell id="_kPhk2gCEdoSoz-p3HK3-3" value="-id: integer&lt;span style=&quot;white-space: pre;&quot;&gt;&#x9;&lt;/span&gt;" style="text;strokeColor=#000000;fillColor=#00FF51;align=left;verticalAlign=top;spacingLeft=4;spacingRight=4;overflow=hidden;rotatable=0;points=[[0,0.5],[1,0.5]];portConstraint=eastwest;whiteSpace=wrap;html=1;fontColor=#000000;" parent="_kPhk2gCEdoSoz-p3HK3-2" vertex="1">
          <mxGeometry y="26" width="320" height="26" as="geometry" />
        </mxCell>
        <mxCell id="_kPhk2gCEdoSoz-p3HK3-4" value="-ownerId: integer" style="text;strokeColor=#000000;fillColor=#00FF51;align=left;verticalAlign=top;spacingLeft=4;spacingRight=4;overflow=hidden;rotatable=0;points=[[0,0.5],[1,0.5]];portConstraint=eastwest;whiteSpace=wrap;html=1;fontColor=#000000;" parent="_kPhk2gCEdoSoz-p3HK3-2" vertex="1">
          <mxGeometry y="52" width="320" height="26" as="geometry" />
        </mxCell>
        <mxCell id="_kPhk2gCEdoSoz-p3HK3-5" value="-name: string" style="text;strokeColor=#000000;fillColor=#00FF51;align=left;verticalAlign=top;spacingLeft=4;spacingRight=4;overflow=hidden;rotatable=0;points=[[0,0.5],[1,0.5]];portConstraint=eastwest;whiteSpace=wrap;html=1;fontColor=#000000;" parent="_kPhk2gCEdoSoz-p3HK3-2" vertex="1">
          <mxGeometry y="78" width="320" height="26" as="geometry" />
        </mxCell>
        <mxCell id="_kPhk2gCEdoSoz-p3HK3-6" value="-description: string&lt;span style=&quot;white-space: pre;&quot;&gt;&#x9;&lt;/span&gt;" style="text;strokeColor=#000000;fillColor=#00FF51;align=left;verticalAlign=top;spacingLeft=4;spacingRight=4;overflow=hidden;rotatable=0;points=[[0,0.5],[1,0.5]];portConstraint=eastwest;whiteSpace=wrap;html=1;fontColor=#000000;" parent="_kPhk2gCEdoSoz-p3HK3-2" vertex="1">
          <mxGeometry y="104" width="320" height="26" as="geometry" />
        </mxCell>
        <mxCell id="_kPhk2gCEdoSoz-p3HK3-7" value="-dateTime: DateTime" style="text;strokeColor=#000000;fillColor=#00FF51;align=left;verticalAlign=top;spacingLeft=4;spacingRight=4;overflow=hidden;rotatable=0;points=[[0,0.5],[1,0.5]];portConstraint=eastwest;whiteSpace=wrap;html=1;fontColor=#000000;" parent="_kPhk2gCEdoSoz-p3HK3-2" vertex="1">
          <mxGeometry y="130" width="320" height="26" as="geometry" />
        </mxCell>
        <mxCell id="_kPhk2gCEdoSoz-p3HK3-8" value="-location: string" style="text;strokeColor=#000000;fillColor=#00FF51;align=left;verticalAlign=top;spacingLeft=4;spacingRight=4;overflow=hidden;rotatable=0;points=[[0,0.5],[1,0.5]];portConstraint=eastwest;whiteSpace=wrap;html=1;fontColor=#000000;" parent="_kPhk2gCEdoSoz-p3HK3-2" vertex="1">
          <mxGeometry y="156" width="320" height="26" as="geometry" />
        </mxCell>
        <mxCell id="_kPhk2gCEdoSoz-p3HK3-9" value="- images: String[]" style="text;strokeColor=#000000;fillColor=#00FF51;align=left;verticalAlign=top;spacingLeft=4;spacingRight=4;overflow=hidden;rotatable=0;points=[[0,0.5],[1,0.5]];portConstraint=eastwest;whiteSpace=wrap;html=1;fontColor=#000000;" parent="_kPhk2gCEdoSoz-p3HK3-2" vertex="1">
          <mxGeometry y="182" width="320" height="26" as="geometry" />
        </mxCell>
        <mxCell id="_kPhk2gCEdoSoz-p3HK3-10" value="- tags: String[]" style="text;strokeColor=#000000;fillColor=#00FF51;align=left;verticalAlign=top;spacingLeft=4;spacingRight=4;overflow=hidden;rotatable=0;points=[[0,0.5],[1,0.5]];portConstraint=eastwest;whiteSpace=wrap;html=1;fontColor=#000000;" parent="_kPhk2gCEdoSoz-p3HK3-2" vertex="1">
          <mxGeometry y="208" width="320" height="26" as="geometry" />
        </mxCell>
        <mxCell id="_kPhk2gCEdoSoz-p3HK3-11" value="- likes: integer" style="text;strokeColor=#000000;fillColor=#00FF51;align=left;verticalAlign=top;spacingLeft=4;spacingRight=4;overflow=hidden;rotatable=0;points=[[0,0.5],[1,0.5]];portConstraint=eastwest;whiteSpace=wrap;html=1;fontColor=#000000;" parent="_kPhk2gCEdoSoz-p3HK3-2" vertex="1">
          <mxGeometry y="234" width="320" height="26" as="geometry" />
        </mxCell>
        <mxCell id="_kPhk2gCEdoSoz-p3HK3-12" style="line;strokeWidth=1;fillColor=#00FF51;align=left;verticalAlign=middle;spacingTop=-1;spacingLeft=3;spacingRight=3;rotatable=0;labelPosition=right;points=[];portConstraint=eastwest;strokeColor=#000000;fontColor=#000000;" parent="_kPhk2gCEdoSoz-p3HK3-2" vertex="1">
          <mxGeometry y="260" width="320" height="10" as="geometry" />
        </mxCell>
        <mxCell id="_kPhk2gCEdoSoz-p3HK3-13" value="&lt;div&gt;+ EventEntity(id: Integer, ownerId: Integer, name: String, description: String, dateTime: DateTime, location: String, images: String[], tags: String[], likes: int=0)&lt;/div&gt;&lt;div&gt;&lt;br&gt;&lt;/div&gt;" style="text;strokeColor=#000000;fillColor=#00FF51;align=left;verticalAlign=top;spacingLeft=4;spacingRight=4;overflow=hidden;rotatable=0;whiteSpace=wrap;html=1;fontColor=#000000;" parent="_kPhk2gCEdoSoz-p3HK3-2" vertex="1">
          <mxGeometry y="270" width="320" height="26" as="geometry" />
        </mxCell>
        <mxCell id="_kPhk2gCEdoSoz-p3HK3-14" value="+ setLikes(likes: Integer): void" style="text;strokeColor=#000000;fillColor=#00FF51;align=left;verticalAlign=top;spacingLeft=4;spacingRight=4;overflow=hidden;rotatable=0;whiteSpace=wrap;html=1;fontColor=#000000;" parent="_kPhk2gCEdoSoz-p3HK3-2" vertex="1">
          <mxGeometry y="296" width="320" height="26" as="geometry" />
        </mxCell>
        <mxCell id="_kPhk2gCEdoSoz-p3HK3-15" value="+ getLikes(): Integer" style="text;strokeColor=#000000;fillColor=#00FF51;align=left;verticalAlign=top;spacingLeft=4;spacingRight=4;overflow=hidden;rotatable=0;whiteSpace=wrap;html=1;fontColor=#000000;" parent="_kPhk2gCEdoSoz-p3HK3-2" vertex="1">
          <mxGeometry y="322" width="320" height="26" as="geometry" />
        </mxCell>
        <mxCell id="_kPhk2gCEdoSoz-p3HK3-16" value="+ setTags(tags: String[]): void" style="text;strokeColor=#000000;fillColor=#00FF51;align=left;verticalAlign=top;spacingLeft=4;spacingRight=4;overflow=hidden;rotatable=0;whiteSpace=wrap;html=1;fontColor=#000000;" parent="_kPhk2gCEdoSoz-p3HK3-2" vertex="1">
          <mxGeometry y="348" width="320" height="26" as="geometry" />
        </mxCell>
        <mxCell id="_kPhk2gCEdoSoz-p3HK3-17" value="+ getTags(): String[]" style="text;strokeColor=#000000;fillColor=#00FF51;align=left;verticalAlign=top;spacingLeft=4;spacingRight=4;overflow=hidden;rotatable=0;whiteSpace=wrap;html=1;fontColor=#000000;" parent="_kPhk2gCEdoSoz-p3HK3-2" vertex="1">
          <mxGeometry y="374" width="320" height="26" as="geometry" />
        </mxCell>
        <mxCell id="_kPhk2gCEdoSoz-p3HK3-18" value="+ setImages(images: String[]): void" style="text;strokeColor=#000000;fillColor=#00FF51;align=left;verticalAlign=top;spacingLeft=4;spacingRight=4;overflow=hidden;rotatable=0;whiteSpace=wrap;html=1;fontColor=#000000;" parent="_kPhk2gCEdoSoz-p3HK3-2" vertex="1">
          <mxGeometry y="400" width="320" height="26" as="geometry" />
        </mxCell>
        <mxCell id="_kPhk2gCEdoSoz-p3HK3-19" value="+ getImages(): String[]" style="text;strokeColor=#000000;fillColor=#00FF51;align=left;verticalAlign=top;spacingLeft=4;spacingRight=4;overflow=hidden;rotatable=0;whiteSpace=wrap;html=1;fontColor=#000000;" parent="_kPhk2gCEdoSoz-p3HK3-2" vertex="1">
          <mxGeometry y="426" width="320" height="26" as="geometry" />
        </mxCell>
        <mxCell id="_kPhk2gCEdoSoz-p3HK3-20" value="+ setLocation(location: String): void" style="text;strokeColor=#000000;fillColor=#00FF51;align=left;verticalAlign=top;spacingLeft=4;spacingRight=4;overflow=hidden;rotatable=0;whiteSpace=wrap;html=1;fontColor=#000000;" parent="_kPhk2gCEdoSoz-p3HK3-2" vertex="1">
          <mxGeometry y="452" width="320" height="26" as="geometry" />
        </mxCell>
        <mxCell id="_kPhk2gCEdoSoz-p3HK3-21" value="+ getLocation(): String" style="text;strokeColor=#000000;fillColor=#00FF51;align=left;verticalAlign=top;spacingLeft=4;spacingRight=4;overflow=hidden;rotatable=0;whiteSpace=wrap;html=1;fontColor=#000000;" parent="_kPhk2gCEdoSoz-p3HK3-2" vertex="1">
          <mxGeometry y="478" width="320" height="26" as="geometry" />
        </mxCell>
        <mxCell id="_kPhk2gCEdoSoz-p3HK3-22" value="+ setDateTime(dateTime: DateTime): void" style="text;strokeColor=#000000;fillColor=#00FF51;align=left;verticalAlign=top;spacingLeft=4;spacingRight=4;overflow=hidden;rotatable=0;whiteSpace=wrap;html=1;fontColor=#000000;" parent="_kPhk2gCEdoSoz-p3HK3-2" vertex="1">
          <mxGeometry y="504" width="320" height="26" as="geometry" />
        </mxCell>
        <mxCell id="_kPhk2gCEdoSoz-p3HK3-23" value="+ getDateTime(): DateTime" style="text;strokeColor=#000000;fillColor=#00FF51;align=left;verticalAlign=top;spacingLeft=4;spacingRight=4;overflow=hidden;rotatable=0;whiteSpace=wrap;html=1;fontColor=#000000;" parent="_kPhk2gCEdoSoz-p3HK3-2" vertex="1">
          <mxGeometry y="530" width="320" height="26" as="geometry" />
        </mxCell>
        <mxCell id="_kPhk2gCEdoSoz-p3HK3-24" value="+ setDescription(description: String): void" style="text;strokeColor=#000000;fillColor=#00FF51;align=left;verticalAlign=top;spacingLeft=4;spacingRight=4;overflow=hidden;rotatable=0;whiteSpace=wrap;html=1;fontColor=#000000;" parent="_kPhk2gCEdoSoz-p3HK3-2" vertex="1">
          <mxGeometry y="556" width="320" height="26" as="geometry" />
        </mxCell>
        <mxCell id="_kPhk2gCEdoSoz-p3HK3-25" value="+ getDescription(): String" style="text;strokeColor=#000000;fillColor=#00FF51;align=left;verticalAlign=top;spacingLeft=4;spacingRight=4;overflow=hidden;rotatable=0;whiteSpace=wrap;html=1;fontColor=#000000;" parent="_kPhk2gCEdoSoz-p3HK3-2" vertex="1">
          <mxGeometry y="582" width="320" height="26" as="geometry" />
        </mxCell>
        <mxCell id="_kPhk2gCEdoSoz-p3HK3-26" value="+ setName(name: String): void" style="text;strokeColor=#000000;fillColor=#00FF51;align=left;verticalAlign=top;spacingLeft=4;spacingRight=4;overflow=hidden;rotatable=0;whiteSpace=wrap;html=1;fontColor=#000000;" parent="_kPhk2gCEdoSoz-p3HK3-2" vertex="1">
          <mxGeometry y="608" width="320" height="26" as="geometry" />
        </mxCell>
        <mxCell id="_kPhk2gCEdoSoz-p3HK3-27" value="+ getName(): String" style="text;strokeColor=#000000;fillColor=#00FF51;align=left;verticalAlign=top;spacingLeft=4;spacingRight=4;overflow=hidden;rotatable=0;whiteSpace=wrap;html=1;fontColor=#000000;" parent="_kPhk2gCEdoSoz-p3HK3-2" vertex="1">
          <mxGeometry y="634" width="320" height="26" as="geometry" />
        </mxCell>
        <mxCell id="_kPhk2gCEdoSoz-p3HK3-28" value="+ setId(id: Integer): void" style="text;strokeColor=#000000;fillColor=#00FF51;align=left;verticalAlign=top;spacingLeft=4;spacingRight=4;overflow=hidden;rotatable=0;whiteSpace=wrap;html=1;fontColor=#000000;" parent="_kPhk2gCEdoSoz-p3HK3-2" vertex="1">
          <mxGeometry y="660" width="320" height="26" as="geometry" />
        </mxCell>
        <mxCell id="_kPhk2gCEdoSoz-p3HK3-29" value="+ getId(): Integer" style="text;strokeColor=#000000;fillColor=#00FF51;align=left;verticalAlign=top;spacingLeft=4;spacingRight=4;overflow=hidden;rotatable=0;whiteSpace=wrap;html=1;fontColor=#000000;" parent="_kPhk2gCEdoSoz-p3HK3-2" vertex="1">
          <mxGeometry y="686" width="320" height="26" as="geometry" />
        </mxCell>
        <mxCell id="_kPhk2gCEdoSoz-p3HK3-30" value="EventController" style="swimlane;fontStyle=1;align=center;verticalAlign=top;childLayout=stackLayout;horizontal=1;startSize=26;horizontalStack=0;resizeParent=1;resizeParentMax=0;resizeLast=0;collapsible=1;marginBottom=0;whiteSpace=wrap;html=1;fillColor=light-dark(#FFFF00,#FFFF33);strokeColor=#000000;" parent="1" vertex="1" collapsed="1">
          <mxGeometry x="-1589" y="946.95" width="185" height="26" as="geometry">
            <mxRectangle x="-4547" y="2231" width="731" height="216" as="alternateBounds" />
          </mxGeometry>
        </mxCell>
        <mxCell id="_kPhk2gCEdoSoz-p3HK3-31" value="" style="line;strokeWidth=1;fillColor=light-dark(#FFFF00,#FFFF33);align=left;verticalAlign=middle;spacingTop=-1;spacingLeft=3;spacingRight=3;rotatable=0;labelPosition=right;points=[];portConstraint=eastwest;strokeColor=#000000;" parent="_kPhk2gCEdoSoz-p3HK3-30" vertex="1">
          <mxGeometry y="26" width="731" height="8" as="geometry" />
        </mxCell>
        <mxCell id="_kPhk2gCEdoSoz-p3HK3-32" value="+ EventController()" style="text;strokeColor=#000000;fillColor=light-dark(#FFFF00,#FFFF33);align=left;verticalAlign=top;spacingLeft=4;spacingRight=4;overflow=hidden;rotatable=0;points=[[0,0.5],[1,0.5]];portConstraint=eastwest;whiteSpace=wrap;html=1;" parent="_kPhk2gCEdoSoz-p3HK3-30" vertex="1">
          <mxGeometry y="34" width="731" height="26" as="geometry" />
        </mxCell>
        <mxCell id="_kPhk2gCEdoSoz-p3HK3-33" value="+&amp;nbsp;&lt;span style=&quot;background-color: transparent;&quot;&gt;likeEvent(accountId: int, eventId: int): void&lt;/span&gt;" style="text;strokeColor=#000000;fillColor=light-dark(#FFFF00,#FFFF33);align=left;verticalAlign=top;spacingLeft=4;spacingRight=4;overflow=hidden;rotatable=0;points=[[0,0.5],[1,0.5]];portConstraint=eastwest;whiteSpace=wrap;html=1;" parent="_kPhk2gCEdoSoz-p3HK3-30" vertex="1">
          <mxGeometry y="60" width="731" height="26" as="geometry" />
        </mxCell>
        <mxCell id="_kPhk2gCEdoSoz-p3HK3-34" value="+ registerEventReminder(accountId: int, eventId: int): void" style="text;strokeColor=#000000;fillColor=light-dark(#FFFF00,#FFFF00);align=left;verticalAlign=top;spacingLeft=4;spacingRight=4;overflow=hidden;rotatable=0;points=[[0,0.5],[1,0.5]];portConstraint=eastwest;whiteSpace=wrap;html=1;fontColor=#000000;" parent="_kPhk2gCEdoSoz-p3HK3-30" vertex="1">
          <mxGeometry y="86" width="731" height="26" as="geometry" />
        </mxCell>
        <mxCell id="_kPhk2gCEdoSoz-p3HK3-35" value="+ createEvent(name: String, ownerId: int, description: String, date: Date, location: String, startingTime: Time, images: String[]): void" style="text;strokeColor=#000000;fillColor=light-dark(#FFFF00,#FFFF33);align=left;verticalAlign=top;spacingLeft=4;spacingRight=4;overflow=hidden;rotatable=0;points=[[0,0.5],[1,0.5]];portConstraint=eastwest;whiteSpace=wrap;html=1;" parent="_kPhk2gCEdoSoz-p3HK3-30" vertex="1">
          <mxGeometry y="112" width="731" height="26" as="geometry" />
        </mxCell>
        <mxCell id="_kPhk2gCEdoSoz-p3HK3-36" value="+ editEvent(id: int, ownerId: int, name: String, description: String, date: Date, location: String, startingTime: Time, images: String[]): void" style="text;strokeColor=#000000;fillColor=light-dark(#FFFF00,#FFFF33);align=left;verticalAlign=top;spacingLeft=4;spacingRight=4;overflow=hidden;rotatable=0;points=[[0,0.5],[1,0.5]];portConstraint=eastwest;whiteSpace=wrap;html=1;" parent="_kPhk2gCEdoSoz-p3HK3-30" vertex="1">
          <mxGeometry y="138" width="731" height="26" as="geometry" />
        </mxCell>
        <mxCell id="_kPhk2gCEdoSoz-p3HK3-37" value="+ deleteEvent(eventId: int): void" style="text;strokeColor=#000000;fillColor=light-dark(#FFFF00,#FFFF33);align=left;verticalAlign=top;spacingLeft=4;spacingRight=4;overflow=hidden;rotatable=0;points=[[0,0.5],[1,0.5]];portConstraint=eastwest;whiteSpace=wrap;html=1;" parent="_kPhk2gCEdoSoz-p3HK3-30" vertex="1">
          <mxGeometry y="164" width="731" height="26" as="geometry" />
        </mxCell>
        <mxCell id="_kPhk2gCEdoSoz-p3HK3-38" value="+ getEvent(eventId: int): EventEntity" style="text;strokeColor=#000000;fillColor=light-dark(#FFFF00,#FFFF33);align=left;verticalAlign=top;spacingLeft=4;spacingRight=4;overflow=hidden;rotatable=0;points=[[0,0.5],[1,0.5]];portConstraint=eastwest;whiteSpace=wrap;html=1;" parent="_kPhk2gCEdoSoz-p3HK3-30" vertex="1">
          <mxGeometry y="190" width="731" height="26" as="geometry" />
        </mxCell>
        <mxCell id="_kPhk2gCEdoSoz-p3HK3-39" value="ViewEventDetailsGUI" style="swimlane;fontStyle=1;align=center;verticalAlign=top;childLayout=stackLayout;horizontal=1;startSize=26;horizontalStack=0;resizeParent=1;resizeParentMax=0;resizeLast=0;collapsible=1;marginBottom=0;whiteSpace=wrap;html=1;fillColor=#5500FF;fontColor=#FFFFFF;strokeColor=#000000;" parent="1" vertex="1" collapsed="1">
          <mxGeometry x="-1786" y="1017" width="170" height="26" as="geometry">
            <mxRectangle x="-2193" y="-1588" width="320" height="450" as="alternateBounds" />
          </mxGeometry>
        </mxCell>
        <mxCell id="_kPhk2gCEdoSoz-p3HK3-40" value="-btnMorePics: Button" style="text;strokeColor=#000000;fillColor=#5500FF;align=left;verticalAlign=top;spacingLeft=4;spacingRight=4;overflow=hidden;rotatable=0;points=[[0,0.5],[1,0.5]];portConstraint=eastwest;whiteSpace=wrap;html=1;fontColor=#FFFFFF;" parent="_kPhk2gCEdoSoz-p3HK3-39" vertex="1">
          <mxGeometry y="26" width="320" height="26" as="geometry" />
        </mxCell>
        <mxCell id="_kPhk2gCEdoSoz-p3HK3-41" value="-eventTitle: String" style="text;strokeColor=#000000;fillColor=#5500FF;align=left;verticalAlign=top;spacingLeft=4;spacingRight=4;overflow=hidden;rotatable=0;points=[[0,0.5],[1,0.5]];portConstraint=eastwest;whiteSpace=wrap;html=1;fontColor=#FFFFFF;" parent="_kPhk2gCEdoSoz-p3HK3-39" vertex="1">
          <mxGeometry y="52" width="320" height="26" as="geometry" />
        </mxCell>
        <mxCell id="_kPhk2gCEdoSoz-p3HK3-42" value="-btnPicThumbnails: Button[]" style="text;strokeColor=#000000;fillColor=#5500FF;align=left;verticalAlign=top;spacingLeft=4;spacingRight=4;overflow=hidden;rotatable=0;points=[[0,0.5],[1,0.5]];portConstraint=eastwest;whiteSpace=wrap;html=1;fontColor=#FFFFFF;" parent="_kPhk2gCEdoSoz-p3HK3-39" vertex="1">
          <mxGeometry y="78" width="320" height="26" as="geometry" />
        </mxCell>
        <mxCell id="_kPhk2gCEdoSoz-p3HK3-43" value="-eventDescription: String" style="text;strokeColor=#000000;fillColor=#5500FF;align=left;verticalAlign=top;spacingLeft=4;spacingRight=4;overflow=hidden;rotatable=0;points=[[0,0.5],[1,0.5]];portConstraint=eastwest;whiteSpace=wrap;html=1;fontColor=#FFFFFF;" parent="_kPhk2gCEdoSoz-p3HK3-39" vertex="1">
          <mxGeometry y="104" width="320" height="26" as="geometry" />
        </mxCell>
        <mxCell id="_kPhk2gCEdoSoz-p3HK3-44" value="-eventLocation: String" style="text;strokeColor=#000000;fillColor=#5500FF;align=left;verticalAlign=top;spacingLeft=4;spacingRight=4;overflow=hidden;rotatable=0;points=[[0,0.5],[1,0.5]];portConstraint=eastwest;whiteSpace=wrap;html=1;fontColor=#FFFFFF;" parent="_kPhk2gCEdoSoz-p3HK3-39" vertex="1">
          <mxGeometry y="130" width="320" height="26" as="geometry" />
        </mxCell>
        <mxCell id="_kPhk2gCEdoSoz-p3HK3-45" value="-eventDateTime: DateTime" style="text;strokeColor=#000000;fillColor=#5500FF;align=left;verticalAlign=top;spacingLeft=4;spacingRight=4;overflow=hidden;rotatable=0;points=[[0,0.5],[1,0.5]];portConstraint=eastwest;whiteSpace=wrap;html=1;fontColor=#FFFFFF;" parent="_kPhk2gCEdoSoz-p3HK3-39" vertex="1">
          <mxGeometry y="156" width="320" height="26" as="geometry" />
        </mxCell>
        <mxCell id="_kPhk2gCEdoSoz-p3HK3-46" value="-eventCategories: String[]" style="text;strokeColor=#000000;fillColor=#5500FF;align=left;verticalAlign=top;spacingLeft=4;spacingRight=4;overflow=hidden;rotatable=0;points=[[0,0.5],[1,0.5]];portConstraint=eastwest;whiteSpace=wrap;html=1;fontColor=#FFFFFF;" parent="_kPhk2gCEdoSoz-p3HK3-39" vertex="1">
          <mxGeometry y="182" width="320" height="26" as="geometry" />
        </mxCell>
        <mxCell id="_kPhk2gCEdoSoz-p3HK3-47" value="-btnHome: Button" style="text;strokeColor=#000000;fillColor=#5500FF;align=left;verticalAlign=top;spacingLeft=4;spacingRight=4;overflow=hidden;rotatable=0;points=[[0,0.5],[1,0.5]];portConstraint=eastwest;whiteSpace=wrap;html=1;fontColor=#FFFFFF;" parent="_kPhk2gCEdoSoz-p3HK3-39" vertex="1">
          <mxGeometry y="208" width="320" height="26" as="geometry" />
        </mxCell>
        <mxCell id="_kPhk2gCEdoSoz-p3HK3-48" value="-btnSearch: Button" style="text;strokeColor=#000000;fillColor=#5500FF;align=left;verticalAlign=top;spacingLeft=4;spacingRight=4;overflow=hidden;rotatable=0;points=[[0,0.5],[1,0.5]];portConstraint=eastwest;whiteSpace=wrap;html=1;fontColor=#FFFFFF;" parent="_kPhk2gCEdoSoz-p3HK3-39" vertex="1">
          <mxGeometry y="234" width="320" height="26" as="geometry" />
        </mxCell>
        <mxCell id="_kPhk2gCEdoSoz-p3HK3-49" value="-btnProfile: Button" style="text;strokeColor=#000000;fillColor=#5500FF;align=left;verticalAlign=top;spacingLeft=4;spacingRight=4;overflow=hidden;rotatable=0;points=[[0,0.5],[1,0.5]];portConstraint=eastwest;whiteSpace=wrap;html=1;fontColor=#FFFFFF;" parent="_kPhk2gCEdoSoz-p3HK3-39" vertex="1">
          <mxGeometry y="260" width="320" height="26" as="geometry" />
        </mxCell>
        <mxCell id="_kPhk2gCEdoSoz-p3HK3-50" value="" style="line;strokeWidth=1;fillColor=#5500FF;align=left;verticalAlign=middle;spacingTop=-1;spacingLeft=3;spacingRight=3;rotatable=0;labelPosition=right;points=[];portConstraint=eastwest;strokeColor=#000000;fontColor=#FFFFFF;" parent="_kPhk2gCEdoSoz-p3HK3-39" vertex="1">
          <mxGeometry y="286" width="320" height="8" as="geometry" />
        </mxCell>
        <mxCell id="_kPhk2gCEdoSoz-p3HK3-51" value="+ ViewEventDetailsGUI()" style="text;align=left;verticalAlign=top;spacingLeft=4;spacingRight=4;overflow=hidden;rotatable=0;points=[[0,0.5],[1,0.5]];portConstraint=eastwest;whiteSpace=wrap;html=1;strokeColor=#000000;fillColor=#5500FF;fontColor=#FFFFFF;" parent="_kPhk2gCEdoSoz-p3HK3-39" vertex="1">
          <mxGeometry y="294" width="320" height="26" as="geometry" />
        </mxCell>
        <mxCell id="_kPhk2gCEdoSoz-p3HK3-52" value="+ btnHomePress(): void" style="text;strokeColor=#000000;fillColor=#5500FF;align=left;verticalAlign=top;spacingLeft=4;spacingRight=4;overflow=hidden;rotatable=0;points=[[0,0.5],[1,0.5]];portConstraint=eastwest;whiteSpace=wrap;html=1;fontColor=#FFFFFF;" parent="_kPhk2gCEdoSoz-p3HK3-39" vertex="1">
          <mxGeometry y="320" width="320" height="26" as="geometry" />
        </mxCell>
        <mxCell id="_kPhk2gCEdoSoz-p3HK3-53" value="+ btnSearchPress(): void" style="text;strokeColor=#000000;fillColor=#5500FF;align=left;verticalAlign=top;spacingLeft=4;spacingRight=4;overflow=hidden;rotatable=0;points=[[0,0.5],[1,0.5]];portConstraint=eastwest;whiteSpace=wrap;html=1;fontColor=#FFFFFF;" parent="_kPhk2gCEdoSoz-p3HK3-39" vertex="1">
          <mxGeometry y="346" width="320" height="26" as="geometry" />
        </mxCell>
        <mxCell id="_kPhk2gCEdoSoz-p3HK3-54" value="+ btnProfilePress(): void" style="text;strokeColor=#000000;fillColor=#5500FF;align=left;verticalAlign=top;spacingLeft=4;spacingRight=4;overflow=hidden;rotatable=0;points=[[0,0.5],[1,0.5]];portConstraint=eastwest;whiteSpace=wrap;html=1;fontColor=#FFFFFF;" parent="_kPhk2gCEdoSoz-p3HK3-39" vertex="1">
          <mxGeometry y="372" width="320" height="26" as="geometry" />
        </mxCell>
        <mxCell id="_kPhk2gCEdoSoz-p3HK3-55" value="+ btnPicThumbnailsPress(): void" style="text;strokeColor=#000000;fillColor=#5500FF;align=left;verticalAlign=top;spacingLeft=4;spacingRight=4;overflow=hidden;rotatable=0;points=[[0,0.5],[1,0.5]];portConstraint=eastwest;whiteSpace=wrap;html=1;fontColor=#FFFFFF;" parent="_kPhk2gCEdoSoz-p3HK3-39" vertex="1">
          <mxGeometry y="398" width="320" height="26" as="geometry" />
        </mxCell>
        <mxCell id="_kPhk2gCEdoSoz-p3HK3-56" value="+ btnMorePicsPress(): void&lt;div&gt;&lt;br&gt;&lt;/div&gt;" style="text;strokeColor=#000000;fillColor=#5500FF;align=left;verticalAlign=top;spacingLeft=4;spacingRight=4;overflow=hidden;rotatable=0;points=[[0,0.5],[1,0.5]];portConstraint=eastwest;whiteSpace=wrap;html=1;fontColor=#FFFFFF;" parent="_kPhk2gCEdoSoz-p3HK3-39" vertex="1">
          <mxGeometry y="424" width="320" height="26" as="geometry" />
        </mxCell>
        <mxCell id="_kPhk2gCEdoSoz-p3HK3-57" value="OrganizedEventsGUI" style="swimlane;fontStyle=1;align=center;verticalAlign=top;childLayout=stackLayout;horizontal=1;startSize=26;horizontalStack=0;resizeParent=1;resizeParentMax=0;resizeLast=0;collapsible=1;marginBottom=0;whiteSpace=wrap;html=1;fillColor=#5500FF;fontColor=#FFFFFF;strokeColor=#000000;" parent="1" vertex="1" collapsed="1">
          <mxGeometry x="-1786" y="884" width="170" height="26" as="geometry">
            <mxRectangle x="-4056" y="1429" width="280" height="242" as="alternateBounds" />
          </mxGeometry>
        </mxCell>
        <mxCell id="_kPhk2gCEdoSoz-p3HK3-58" value="-btnHome: Button&lt;span style=&quot;white-space: pre;&quot;&gt;&#x9;&lt;/span&gt;" style="text;strokeColor=#000000;fillColor=#5500FF;align=left;verticalAlign=top;spacingLeft=4;spacingRight=4;overflow=hidden;rotatable=0;points=[[0,0.5],[1,0.5]];portConstraint=eastwest;whiteSpace=wrap;html=1;fontColor=#FFFFFF;" parent="_kPhk2gCEdoSoz-p3HK3-57" vertex="1">
          <mxGeometry y="26" width="280" height="26" as="geometry" />
        </mxCell>
        <mxCell id="_kPhk2gCEdoSoz-p3HK3-59" value="-btnSearch: Button" style="text;strokeColor=#000000;fillColor=#5500FF;align=left;verticalAlign=top;spacingLeft=4;spacingRight=4;overflow=hidden;rotatable=0;points=[[0,0.5],[1,0.5]];portConstraint=eastwest;whiteSpace=wrap;html=1;fontColor=#FFFFFF;" parent="_kPhk2gCEdoSoz-p3HK3-57" vertex="1">
          <mxGeometry y="52" width="280" height="26" as="geometry" />
        </mxCell>
        <mxCell id="_kPhk2gCEdoSoz-p3HK3-60" value="-btnProfile: Button" style="text;strokeColor=#000000;fillColor=#5500FF;align=left;verticalAlign=top;spacingLeft=4;spacingRight=4;overflow=hidden;rotatable=0;points=[[0,0.5],[1,0.5]];portConstraint=eastwest;whiteSpace=wrap;html=1;fontColor=#FFFFFF;" parent="_kPhk2gCEdoSoz-p3HK3-57" vertex="1">
          <mxGeometry y="78" width="280" height="26" as="geometry" />
        </mxCell>
        <mxCell id="_kPhk2gCEdoSoz-p3HK3-61" value="&lt;font style=&quot;&quot;&gt;-eventTabGroups:&amp;nbsp;&lt;span style=&quot;text-align: center;&quot;&gt;EventTabManageGUI&lt;/span&gt;[]&lt;/font&gt;" style="text;strokeColor=#000000;fillColor=#9E6CFF;align=left;verticalAlign=top;spacingLeft=4;spacingRight=4;overflow=hidden;rotatable=0;points=[[0,0.5],[1,0.5]];portConstraint=eastwest;whiteSpace=wrap;html=1;fontColor=#FFFFFF;" parent="_kPhk2gCEdoSoz-p3HK3-57" vertex="1">
          <mxGeometry y="104" width="280" height="26" as="geometry" />
        </mxCell>
        <mxCell id="_kPhk2gCEdoSoz-p3HK3-62" value="" style="line;strokeWidth=1;fillColor=#5500FF;align=left;verticalAlign=middle;spacingTop=-1;spacingLeft=3;spacingRight=3;rotatable=0;labelPosition=right;points=[];portConstraint=eastwest;strokeColor=#000000;fontColor=#FFFFFF;" parent="_kPhk2gCEdoSoz-p3HK3-57" vertex="1">
          <mxGeometry y="130" width="280" height="8" as="geometry" />
        </mxCell>
        <mxCell id="_kPhk2gCEdoSoz-p3HK3-63" value="+ OrganizedEventsGUI()" style="text;align=left;verticalAlign=top;spacingLeft=4;spacingRight=4;overflow=hidden;rotatable=0;points=[[0,0.5],[1,0.5]];portConstraint=eastwest;whiteSpace=wrap;html=1;fillColor=#5500FF;strokeColor=#000000;fontColor=#FFFFFF;" parent="_kPhk2gCEdoSoz-p3HK3-57" vertex="1">
          <mxGeometry y="138" width="280" height="26" as="geometry" />
        </mxCell>
        <mxCell id="_kPhk2gCEdoSoz-p3HK3-64" value="+ btnHomePress(): void" style="text;strokeColor=#000000;fillColor=#5500FF;align=left;verticalAlign=top;spacingLeft=4;spacingRight=4;overflow=hidden;rotatable=0;points=[[0,0.5],[1,0.5]];portConstraint=eastwest;whiteSpace=wrap;html=1;fontColor=#FFFFFF;" parent="_kPhk2gCEdoSoz-p3HK3-57" vertex="1">
          <mxGeometry y="164" width="280" height="26" as="geometry" />
        </mxCell>
        <mxCell id="_kPhk2gCEdoSoz-p3HK3-65" value="+ btnSearchPress(): void" style="text;strokeColor=#000000;fillColor=#5500FF;align=left;verticalAlign=top;spacingLeft=4;spacingRight=4;overflow=hidden;rotatable=0;points=[[0,0.5],[1,0.5]];portConstraint=eastwest;whiteSpace=wrap;html=1;fontColor=#FFFFFF;" parent="_kPhk2gCEdoSoz-p3HK3-57" vertex="1">
          <mxGeometry y="190" width="280" height="26" as="geometry" />
        </mxCell>
        <mxCell id="_kPhk2gCEdoSoz-p3HK3-66" value="+ btnProfilePress(): void" style="text;strokeColor=#000000;fillColor=#5500FF;align=left;verticalAlign=top;spacingLeft=4;spacingRight=4;overflow=hidden;rotatable=0;points=[[0,0.5],[1,0.5]];portConstraint=eastwest;whiteSpace=wrap;html=1;fontColor=#FFFFFF;" parent="_kPhk2gCEdoSoz-p3HK3-57" vertex="1">
          <mxGeometry y="216" width="280" height="26" as="geometry" />
        </mxCell>
        <mxCell id="_kPhk2gCEdoSoz-p3HK3-67" value="EditEventDetailsGUI" style="swimlane;fontStyle=1;align=center;verticalAlign=top;childLayout=stackLayout;horizontal=1;startSize=26;horizontalStack=0;resizeParent=1;resizeParentMax=0;resizeLast=0;collapsible=1;marginBottom=0;whiteSpace=wrap;html=1;fillColor=#5500FF;strokeColor=#000000;fontColor=#FFFFFF;" parent="1" vertex="1" collapsed="1">
          <mxGeometry x="-1786" y="976" width="170" height="26" as="geometry">
            <mxRectangle x="-3233" y="1691" width="320" height="554" as="alternateBounds" />
          </mxGeometry>
        </mxCell>
        <mxCell id="_kPhk2gCEdoSoz-p3HK3-68" value="-eventPics: Image[]" style="text;strokeColor=#000000;fillColor=#5500FF;align=left;verticalAlign=top;spacingLeft=4;spacingRight=4;overflow=hidden;rotatable=0;points=[[0,0.5],[1,0.5]];portConstraint=eastwest;whiteSpace=wrap;html=1;fontColor=#FFFFFF;" parent="_kPhk2gCEdoSoz-p3HK3-67" vertex="1">
          <mxGeometry y="26" width="320" height="26" as="geometry" />
        </mxCell>
        <mxCell id="_kPhk2gCEdoSoz-p3HK3-69" value="-fldTitle: Field" style="text;strokeColor=#000000;fillColor=#5500FF;align=left;verticalAlign=top;spacingLeft=4;spacingRight=4;overflow=hidden;rotatable=0;points=[[0,0.5],[1,0.5]];portConstraint=eastwest;whiteSpace=wrap;html=1;fontColor=#FFFFFF;" parent="_kPhk2gCEdoSoz-p3HK3-67" vertex="1">
          <mxGeometry y="52" width="320" height="26" as="geometry" />
        </mxCell>
        <mxCell id="_kPhk2gCEdoSoz-p3HK3-70" value="-fldDescription: Field" style="text;strokeColor=#000000;fillColor=#5500FF;align=left;verticalAlign=top;spacingLeft=4;spacingRight=4;overflow=hidden;rotatable=0;points=[[0,0.5],[1,0.5]];portConstraint=eastwest;whiteSpace=wrap;html=1;fontColor=#FFFFFF;" parent="_kPhk2gCEdoSoz-p3HK3-67" vertex="1">
          <mxGeometry y="78" width="320" height="26" as="geometry" />
        </mxCell>
        <mxCell id="_kPhk2gCEdoSoz-p3HK3-71" value="-btnLocation: Button" style="text;strokeColor=#000000;fillColor=#5500FF;align=left;verticalAlign=top;spacingLeft=4;spacingRight=4;overflow=hidden;rotatable=0;points=[[0,0.5],[1,0.5]];portConstraint=eastwest;whiteSpace=wrap;html=1;fontColor=#FFFFFF;" parent="_kPhk2gCEdoSoz-p3HK3-67" vertex="1">
          <mxGeometry y="104" width="320" height="26" as="geometry" />
        </mxCell>
        <mxCell id="_kPhk2gCEdoSoz-p3HK3-72" value="-btnEditPhotos: Button" style="text;strokeColor=#000000;fillColor=#5500FF;align=left;verticalAlign=top;spacingLeft=4;spacingRight=4;overflow=hidden;rotatable=0;points=[[0,0.5],[1,0.5]];portConstraint=eastwest;whiteSpace=wrap;html=1;fontColor=#FFFFFF;" parent="_kPhk2gCEdoSoz-p3HK3-67" vertex="1">
          <mxGeometry y="130" width="320" height="26" as="geometry" />
        </mxCell>
        <mxCell id="_kPhk2gCEdoSoz-p3HK3-73" value="-btnDateTime: Button" style="text;strokeColor=#000000;fillColor=#5500FF;align=left;verticalAlign=top;spacingLeft=4;spacingRight=4;overflow=hidden;rotatable=0;points=[[0,0.5],[1,0.5]];portConstraint=eastwest;whiteSpace=wrap;html=1;fontColor=#FFFFFF;" parent="_kPhk2gCEdoSoz-p3HK3-67" vertex="1">
          <mxGeometry y="156" width="320" height="26" as="geometry" />
        </mxCell>
        <mxCell id="_kPhk2gCEdoSoz-p3HK3-74" value="-btnSeeCategories: Button" style="text;strokeColor=#000000;fillColor=#5500FF;align=left;verticalAlign=top;spacingLeft=4;spacingRight=4;overflow=hidden;rotatable=0;points=[[0,0.5],[1,0.5]];portConstraint=eastwest;whiteSpace=wrap;html=1;fontColor=#FFFFFF;" parent="_kPhk2gCEdoSoz-p3HK3-67" vertex="1">
          <mxGeometry y="182" width="320" height="26" as="geometry" />
        </mxCell>
        <mxCell id="_kPhk2gCEdoSoz-p3HK3-75" value="-btnHome: Button" style="text;strokeColor=#000000;fillColor=#5500FF;align=left;verticalAlign=top;spacingLeft=4;spacingRight=4;overflow=hidden;rotatable=0;points=[[0,0.5],[1,0.5]];portConstraint=eastwest;whiteSpace=wrap;html=1;fontColor=#FFFFFF;" parent="_kPhk2gCEdoSoz-p3HK3-67" vertex="1">
          <mxGeometry y="208" width="320" height="26" as="geometry" />
        </mxCell>
        <mxCell id="_kPhk2gCEdoSoz-p3HK3-76" value="-btnSearch: Button" style="text;strokeColor=#000000;fillColor=#5500FF;align=left;verticalAlign=top;spacingLeft=4;spacingRight=4;overflow=hidden;rotatable=0;points=[[0,0.5],[1,0.5]];portConstraint=eastwest;whiteSpace=wrap;html=1;fontColor=#FFFFFF;" parent="_kPhk2gCEdoSoz-p3HK3-67" vertex="1">
          <mxGeometry y="234" width="320" height="26" as="geometry" />
        </mxCell>
        <mxCell id="_kPhk2gCEdoSoz-p3HK3-77" value="-btnProfile: Button" style="text;strokeColor=#000000;fillColor=#5500FF;align=left;verticalAlign=top;spacingLeft=4;spacingRight=4;overflow=hidden;rotatable=0;points=[[0,0.5],[1,0.5]];portConstraint=eastwest;whiteSpace=wrap;html=1;fontColor=#FFFFFF;" parent="_kPhk2gCEdoSoz-p3HK3-67" vertex="1">
          <mxGeometry y="260" width="320" height="26" as="geometry" />
        </mxCell>
        <mxCell id="_kPhk2gCEdoSoz-p3HK3-78" value="" style="line;strokeWidth=1;fillColor=#5500FF;align=left;verticalAlign=middle;spacingTop=-1;spacingLeft=3;spacingRight=3;rotatable=0;labelPosition=right;points=[];portConstraint=eastwest;strokeColor=#000000;fontColor=#FFFFFF;" parent="_kPhk2gCEdoSoz-p3HK3-67" vertex="1">
          <mxGeometry y="286" width="320" height="8" as="geometry" />
        </mxCell>
        <mxCell id="_kPhk2gCEdoSoz-p3HK3-79" value="+ EditEventDetailsGUI()" style="text;strokeColor=#000000;fillColor=#5500FF;align=left;verticalAlign=top;spacingLeft=4;spacingRight=4;overflow=hidden;rotatable=0;points=[[0,0.5],[1,0.5]];portConstraint=eastwest;whiteSpace=wrap;html=1;fontColor=#FFFFFF;" parent="_kPhk2gCEdoSoz-p3HK3-67" vertex="1">
          <mxGeometry y="294" width="320" height="26" as="geometry" />
        </mxCell>
        <mxCell id="_kPhk2gCEdoSoz-p3HK3-80" value="+ btnHomePress(): void" style="text;align=left;verticalAlign=top;spacingLeft=4;spacingRight=4;overflow=hidden;rotatable=0;points=[[0,0.5],[1,0.5]];portConstraint=eastwest;whiteSpace=wrap;html=1;strokeColor=#000000;fillColor=#5500FF;fontColor=#FFFFFF;" parent="_kPhk2gCEdoSoz-p3HK3-67" vertex="1">
          <mxGeometry y="320" width="320" height="26" as="geometry" />
        </mxCell>
        <mxCell id="_kPhk2gCEdoSoz-p3HK3-81" value="+ btnSearchPress(): void" style="text;strokeColor=#000000;fillColor=#5500FF;align=left;verticalAlign=top;spacingLeft=4;spacingRight=4;overflow=hidden;rotatable=0;points=[[0,0.5],[1,0.5]];portConstraint=eastwest;whiteSpace=wrap;html=1;fontColor=#FFFFFF;" parent="_kPhk2gCEdoSoz-p3HK3-67" vertex="1">
          <mxGeometry y="346" width="320" height="26" as="geometry" />
        </mxCell>
        <mxCell id="_kPhk2gCEdoSoz-p3HK3-82" value="+ btnProfilePress(): void" style="text;strokeColor=#000000;fillColor=#5500FF;align=left;verticalAlign=top;spacingLeft=4;spacingRight=4;overflow=hidden;rotatable=0;points=[[0,0.5],[1,0.5]];portConstraint=eastwest;whiteSpace=wrap;html=1;fontColor=#FFFFFF;" parent="_kPhk2gCEdoSoz-p3HK3-67" vertex="1">
          <mxGeometry y="372" width="320" height="26" as="geometry" />
        </mxCell>
        <mxCell id="_kPhk2gCEdoSoz-p3HK3-83" value="+ editTitlePressed(): void" style="text;strokeColor=#000000;fillColor=#5500FF;align=left;verticalAlign=top;spacingLeft=4;spacingRight=4;overflow=hidden;rotatable=0;points=[[0,0.5],[1,0.5]];portConstraint=eastwest;whiteSpace=wrap;html=1;fontColor=#FFFFFF;" parent="_kPhk2gCEdoSoz-p3HK3-67" vertex="1">
          <mxGeometry y="398" width="320" height="26" as="geometry" />
        </mxCell>
        <mxCell id="_kPhk2gCEdoSoz-p3HK3-84" value="+ editDescriptionPressed(): void" style="text;strokeColor=#000000;fillColor=#5500FF;align=left;verticalAlign=top;spacingLeft=4;spacingRight=4;overflow=hidden;rotatable=0;points=[[0,0.5],[1,0.5]];portConstraint=eastwest;whiteSpace=wrap;html=1;fontColor=#FFFFFF;" parent="_kPhk2gCEdoSoz-p3HK3-67" vertex="1">
          <mxGeometry y="424" width="320" height="26" as="geometry" />
        </mxCell>
        <mxCell id="_kPhk2gCEdoSoz-p3HK3-85" value="+ btnLocationPress(): void" style="text;strokeColor=#000000;fillColor=#5500FF;align=left;verticalAlign=top;spacingLeft=4;spacingRight=4;overflow=hidden;rotatable=0;points=[[0,0.5],[1,0.5]];portConstraint=eastwest;whiteSpace=wrap;html=1;fontColor=#FFFFFF;" parent="_kPhk2gCEdoSoz-p3HK3-67" vertex="1">
          <mxGeometry y="450" width="320" height="26" as="geometry" />
        </mxCell>
        <mxCell id="_kPhk2gCEdoSoz-p3HK3-86" value="+ btnEditPhotosPress(): void" style="text;strokeColor=#000000;fillColor=#5500FF;align=left;verticalAlign=top;spacingLeft=4;spacingRight=4;overflow=hidden;rotatable=0;points=[[0,0.5],[1,0.5]];portConstraint=eastwest;whiteSpace=wrap;html=1;fontColor=#FFFFFF;" parent="_kPhk2gCEdoSoz-p3HK3-67" vertex="1">
          <mxGeometry y="476" width="320" height="26" as="geometry" />
        </mxCell>
        <mxCell id="_kPhk2gCEdoSoz-p3HK3-87" value="+ btnDateTimePress(): void" style="text;strokeColor=#000000;fillColor=#5500FF;align=left;verticalAlign=top;spacingLeft=4;spacingRight=4;overflow=hidden;rotatable=0;points=[[0,0.5],[1,0.5]];portConstraint=eastwest;whiteSpace=wrap;html=1;fontColor=#FFFFFF;" parent="_kPhk2gCEdoSoz-p3HK3-67" vertex="1">
          <mxGeometry y="502" width="320" height="26" as="geometry" />
        </mxCell>
        <mxCell id="_kPhk2gCEdoSoz-p3HK3-88" value="+ btnSeeCategoriesPress(): void" style="text;strokeColor=#000000;fillColor=#5500FF;align=left;verticalAlign=top;spacingLeft=4;spacingRight=4;overflow=hidden;rotatable=0;points=[[0,0.5],[1,0.5]];portConstraint=eastwest;whiteSpace=wrap;html=1;fontColor=#FFFFFF;" parent="_kPhk2gCEdoSoz-p3HK3-67" vertex="1">
          <mxGeometry y="528" width="320" height="26" as="geometry" />
        </mxCell>
        <mxCell id="_kPhk2gCEdoSoz-p3HK3-89" value="EventTabManageGUI" style="swimlane;fontStyle=1;align=center;verticalAlign=top;childLayout=stackLayout;horizontal=1;startSize=26;horizontalStack=0;resizeParent=1;resizeParentMax=0;resizeLast=0;collapsible=1;marginBottom=0;whiteSpace=wrap;html=1;fillColor=#5500FF;strokeColor=#000000;fontColor=#FFFFFF;" parent="1" vertex="1" collapsed="1">
          <mxGeometry x="-1786" y="932" width="170" height="26" as="geometry">
            <mxRectangle x="-4061" y="1696" width="290" height="372" as="alternateBounds" />
          </mxGeometry>
        </mxCell>
        <mxCell id="_kPhk2gCEdoSoz-p3HK3-90" value="-eventImg: Image" style="text;align=left;verticalAlign=top;spacingLeft=4;spacingRight=4;overflow=hidden;rotatable=0;points=[[0,0.5],[1,0.5]];portConstraint=eastwest;whiteSpace=wrap;html=1;fillColor=#5500FF;strokeColor=#000000;fontColor=#FFFFFF;" parent="_kPhk2gCEdoSoz-p3HK3-89" vertex="1">
          <mxGeometry y="26" width="290" height="26" as="geometry" />
        </mxCell>
        <mxCell id="_kPhk2gCEdoSoz-p3HK3-91" value="-eventName: String" style="text;align=left;verticalAlign=top;spacingLeft=4;spacingRight=4;overflow=hidden;rotatable=0;points=[[0,0.5],[1,0.5]];portConstraint=eastwest;whiteSpace=wrap;html=1;fillColor=#5500FF;strokeColor=#000000;fontColor=#FFFFFF;" parent="_kPhk2gCEdoSoz-p3HK3-89" vertex="1">
          <mxGeometry y="52" width="290" height="26" as="geometry" />
        </mxCell>
        <mxCell id="_kPhk2gCEdoSoz-p3HK3-92" value="-eventStatus: EventStatus" style="text;align=left;verticalAlign=top;spacingLeft=4;spacingRight=4;overflow=hidden;rotatable=0;points=[[0,0.5],[1,0.5]];portConstraint=eastwest;whiteSpace=wrap;html=1;fillColor=#5500FF;strokeColor=#000000;fontColor=#FFFFFF;" parent="_kPhk2gCEdoSoz-p3HK3-89" vertex="1">
          <mxGeometry y="78" width="290" height="26" as="geometry" />
        </mxCell>
        <mxCell id="_kPhk2gCEdoSoz-p3HK3-93" value="-eventL&lt;span style=&quot;background-color: transparent;&quot;&gt;ikeCounter: integer&lt;/span&gt;" style="text;align=left;verticalAlign=top;spacingLeft=4;spacingRight=4;overflow=hidden;rotatable=0;points=[[0,0.5],[1,0.5]];portConstraint=eastwest;whiteSpace=wrap;html=1;fillColor=#5500FF;strokeColor=#000000;fontColor=#FFFFFF;" parent="_kPhk2gCEdoSoz-p3HK3-89" vertex="1">
          <mxGeometry y="104" width="290" height="26" as="geometry" />
        </mxCell>
        <mxCell id="_kPhk2gCEdoSoz-p3HK3-94" value="-userHasLiked: bool" style="text;align=left;verticalAlign=top;spacingLeft=4;spacingRight=4;overflow=hidden;rotatable=0;points=[[0,0.5],[1,0.5]];portConstraint=eastwest;whiteSpace=wrap;html=1;fillColor=#5500FF;strokeColor=#000000;fontColor=#FFFFFF;" parent="_kPhk2gCEdoSoz-p3HK3-89" vertex="1">
          <mxGeometry y="130" width="290" height="26" as="geometry" />
        </mxCell>
        <mxCell id="_kPhk2gCEdoSoz-p3HK3-95" value="-btnLikeEvent: Button" style="text;align=left;verticalAlign=top;spacingLeft=4;spacingRight=4;overflow=hidden;rotatable=0;points=[[0,0.5],[1,0.5]];portConstraint=eastwest;whiteSpace=wrap;html=1;fillColor=#5500FF;strokeColor=#000000;fontColor=#FFFFFF;" parent="_kPhk2gCEdoSoz-p3HK3-89" vertex="1">
          <mxGeometry y="156" width="290" height="26" as="geometry" />
        </mxCell>
        <mxCell id="_kPhk2gCEdoSoz-p3HK3-96" value="-btnDeleteEvent: Button" style="text;align=left;verticalAlign=top;spacingLeft=4;spacingRight=4;overflow=hidden;rotatable=0;points=[[0,0.5],[1,0.5]];portConstraint=eastwest;whiteSpace=wrap;html=1;fillColor=#5500FF;strokeColor=#000000;fontColor=#FFFFFF;" parent="_kPhk2gCEdoSoz-p3HK3-89" vertex="1">
          <mxGeometry y="182" width="290" height="26" as="geometry" />
        </mxCell>
        <mxCell id="_kPhk2gCEdoSoz-p3HK3-97" value="-btnEditEvent: Button" style="text;align=left;verticalAlign=top;spacingLeft=4;spacingRight=4;overflow=hidden;rotatable=0;points=[[0,0.5],[1,0.5]];portConstraint=eastwest;whiteSpace=wrap;html=1;fillColor=#5500FF;strokeColor=#000000;fontColor=#FFFFFF;" parent="_kPhk2gCEdoSoz-p3HK3-89" vertex="1">
          <mxGeometry y="208" width="290" height="26" as="geometry" />
        </mxCell>
        <mxCell id="_kPhk2gCEdoSoz-p3HK3-98" value="" style="line;strokeWidth=1;align=left;verticalAlign=middle;spacingTop=-1;spacingLeft=3;spacingRight=3;rotatable=0;labelPosition=right;points=[];portConstraint=eastwest;fillColor=#5500FF;strokeColor=#000000;fontColor=#FFFFFF;" parent="_kPhk2gCEdoSoz-p3HK3-89" vertex="1">
          <mxGeometry y="234" width="290" height="8" as="geometry" />
        </mxCell>
        <mxCell id="_kPhk2gCEdoSoz-p3HK3-99" value="+ EventTabManageGUI()" style="text;align=left;verticalAlign=top;spacingLeft=4;spacingRight=4;overflow=hidden;rotatable=0;points=[[0,0.5],[1,0.5]];portConstraint=eastwest;whiteSpace=wrap;html=1;fillColor=#5500FF;strokeColor=#000000;fontColor=#FFFFFF;" parent="_kPhk2gCEdoSoz-p3HK3-89" vertex="1">
          <mxGeometry y="242" width="290" height="26" as="geometry" />
        </mxCell>
        <mxCell id="_kPhk2gCEdoSoz-p3HK3-100" value="+ btnEditEventPress(event: EventEntity):void" style="text;align=left;verticalAlign=top;spacingLeft=4;spacingRight=4;overflow=hidden;rotatable=0;points=[[0,0.5],[1,0.5]];portConstraint=eastwest;whiteSpace=wrap;html=1;fillColor=#5500FF;strokeColor=#000000;fontColor=#FFFFFF;" parent="_kPhk2gCEdoSoz-p3HK3-89" vertex="1">
          <mxGeometry y="268" width="290" height="26" as="geometry" />
        </mxCell>
        <mxCell id="_kPhk2gCEdoSoz-p3HK3-101" value="+ btnDeleteEventPress(event: EventEntity): void" style="text;align=left;verticalAlign=top;spacingLeft=4;spacingRight=4;overflow=hidden;rotatable=0;points=[[0,0.5],[1,0.5]];portConstraint=eastwest;whiteSpace=wrap;html=1;fillColor=#5500FF;strokeColor=#000000;fontColor=#FFFFFF;" parent="_kPhk2gCEdoSoz-p3HK3-89" vertex="1">
          <mxGeometry y="294" width="290" height="26" as="geometry" />
        </mxCell>
        <mxCell id="_kPhk2gCEdoSoz-p3HK3-102" value="+ btnLikeEventPress(event: EventEntity): void" style="text;align=left;verticalAlign=top;spacingLeft=4;spacingRight=4;overflow=hidden;rotatable=0;points=[[0,0.5],[1,0.5]];portConstraint=eastwest;whiteSpace=wrap;html=1;fillColor=#5500FF;strokeColor=#000000;fontColor=#FFFFFF;" parent="_kPhk2gCEdoSoz-p3HK3-89" vertex="1">
          <mxGeometry y="320" width="290" height="26" as="geometry" />
        </mxCell>
        <mxCell id="_kPhk2gCEdoSoz-p3HK3-103" value="+ showEmptyListMessage(): void" style="text;align=left;verticalAlign=top;spacingLeft=4;spacingRight=4;overflow=hidden;rotatable=0;points=[[0,0.5],[1,0.5]];portConstraint=eastwest;whiteSpace=wrap;html=1;fillColor=#5500FF;strokeColor=#000000;fontColor=#FFFFFF;" parent="_kPhk2gCEdoSoz-p3HK3-89" vertex="1">
          <mxGeometry y="346" width="290" height="26" as="geometry" />
        </mxCell>
        <mxCell id="_kPhk2gCEdoSoz-p3HK3-104" value="CreateEventGUI" style="swimlane;fontStyle=1;align=center;verticalAlign=top;childLayout=stackLayout;horizontal=1;startSize=26;horizontalStack=0;resizeParent=1;resizeParentMax=0;resizeLast=0;collapsible=1;marginBottom=0;whiteSpace=wrap;html=1;fillColor=#5500FF;fontColor=#FFFFFF;strokeColor=#000000;" parent="1" vertex="1" collapsed="1">
          <mxGeometry x="-1786" y="838" width="170" height="26" as="geometry">
            <mxRectangle x="-3258" y="1360" width="340" height="528" as="alternateBounds" />
          </mxGeometry>
        </mxCell>
        <mxCell id="_kPhk2gCEdoSoz-p3HK3-105" value="-txtTitle: TextField" style="text;strokeColor=#000000;fillColor=#5500FF;align=left;verticalAlign=top;spacingLeft=4;spacingRight=4;overflow=hidden;rotatable=0;points=[[0,0.5],[1,0.5]];portConstraint=eastwest;whiteSpace=wrap;html=1;fontColor=#FFFFFF;" parent="_kPhk2gCEdoSoz-p3HK3-104" vertex="1">
          <mxGeometry y="26" width="340" height="26" as="geometry" />
        </mxCell>
        <mxCell id="_kPhk2gCEdoSoz-p3HK3-106" value="-txtDescription: TextArea" style="text;strokeColor=#000000;fillColor=#5500FF;align=left;verticalAlign=top;spacingLeft=4;spacingRight=4;overflow=hidden;rotatable=0;points=[[0,0.5],[1,0.5]];portConstraint=eastwest;whiteSpace=wrap;html=1;fontColor=#FFFFFF;" parent="_kPhk2gCEdoSoz-p3HK3-104" vertex="1">
          <mxGeometry y="52" width="340" height="26" as="geometry" />
        </mxCell>
        <mxCell id="_kPhk2gCEdoSoz-p3HK3-107" value="-lblVenueLocation: Label" style="text;strokeColor=#000000;fillColor=#5500FF;align=left;verticalAlign=top;spacingLeft=4;spacingRight=4;overflow=hidden;rotatable=0;points=[[0,0.5],[1,0.5]];portConstraint=eastwest;whiteSpace=wrap;html=1;fontColor=#FFFFFF;" parent="_kPhk2gCEdoSoz-p3HK3-104" vertex="1">
          <mxGeometry y="78" width="340" height="26" as="geometry" />
        </mxCell>
        <mxCell id="_kPhk2gCEdoSoz-p3HK3-108" value="-btnUploadPhotos: Button" style="text;strokeColor=#000000;fillColor=#5500FF;align=left;verticalAlign=top;spacingLeft=4;spacingRight=4;overflow=hidden;rotatable=0;points=[[0,0.5],[1,0.5]];portConstraint=eastwest;whiteSpace=wrap;html=1;fontColor=#FFFFFF;" parent="_kPhk2gCEdoSoz-p3HK3-104" vertex="1">
          <mxGeometry y="104" width="340" height="26" as="geometry" />
        </mxCell>
        <mxCell id="_kPhk2gCEdoSoz-p3HK3-109" value="-btnSelectLocation: Button" style="text;align=left;verticalAlign=top;spacingLeft=4;spacingRight=4;overflow=hidden;rotatable=0;points=[[0,0.5],[1,0.5]];portConstraint=eastwest;whiteSpace=wrap;html=1;strokeColor=#000000;fillColor=#5500FF;fontColor=#FFFFFF;" parent="_kPhk2gCEdoSoz-p3HK3-104" vertex="1">
          <mxGeometry y="130" width="340" height="26" as="geometry" />
        </mxCell>
        <mxCell id="_kPhk2gCEdoSoz-p3HK3-110" value="-isSelectLocationEnabled: bool" style="text;align=left;verticalAlign=top;spacingLeft=4;spacingRight=4;overflow=hidden;rotatable=0;points=[[0,0.5],[1,0.5]];portConstraint=eastwest;whiteSpace=wrap;html=1;strokeColor=#000000;fillColor=#5500FF;fontColor=#FFFFFF;" parent="_kPhk2gCEdoSoz-p3HK3-104" vertex="1">
          <mxGeometry y="156" width="340" height="26" as="geometry" />
        </mxCell>
        <mxCell id="_kPhk2gCEdoSoz-p3HK3-111" value="-btnSelectDateTime: Button" style="text;align=left;verticalAlign=top;spacingLeft=4;spacingRight=4;overflow=hidden;rotatable=0;points=[[0,0.5],[1,0.5]];portConstraint=eastwest;whiteSpace=wrap;html=1;strokeColor=#000000;fillColor=#5500FF;fontColor=#FFFFFF;" parent="_kPhk2gCEdoSoz-p3HK3-104" vertex="1">
          <mxGeometry y="182" width="340" height="26" as="geometry" />
        </mxCell>
        <mxCell id="_kPhk2gCEdoSoz-p3HK3-112" value="-btnSelectCategories: Button" style="text;align=left;verticalAlign=top;spacingLeft=4;spacingRight=4;overflow=hidden;rotatable=0;points=[[0,0.5],[1,0.5]];portConstraint=eastwest;whiteSpace=wrap;html=1;strokeColor=#000000;fillColor=#5500FF;fontColor=#FFFFFF;" parent="_kPhk2gCEdoSoz-p3HK3-104" vertex="1">
          <mxGeometry y="208" width="340" height="26" as="geometry" />
        </mxCell>
        <mxCell id="_kPhk2gCEdoSoz-p3HK3-113" value="-btnHome: Button" style="text;strokeColor=#000000;fillColor=#5500FF;align=left;verticalAlign=top;spacingLeft=4;spacingRight=4;overflow=hidden;rotatable=0;points=[[0,0.5],[1,0.5]];portConstraint=eastwest;whiteSpace=wrap;html=1;fontColor=#FFFFFF;" parent="_kPhk2gCEdoSoz-p3HK3-104" vertex="1">
          <mxGeometry y="234" width="340" height="26" as="geometry" />
        </mxCell>
        <mxCell id="_kPhk2gCEdoSoz-p3HK3-114" value="-btnSearch: Button" style="text;strokeColor=#000000;fillColor=#5500FF;align=left;verticalAlign=top;spacingLeft=4;spacingRight=4;overflow=hidden;rotatable=0;points=[[0,0.5],[1,0.5]];portConstraint=eastwest;whiteSpace=wrap;html=1;fontColor=#FFFFFF;" parent="_kPhk2gCEdoSoz-p3HK3-104" vertex="1">
          <mxGeometry y="260" width="340" height="26" as="geometry" />
        </mxCell>
        <mxCell id="_kPhk2gCEdoSoz-p3HK3-115" value="-btnProfile: Button" style="text;strokeColor=#000000;fillColor=#5500FF;align=left;verticalAlign=top;spacingLeft=4;spacingRight=4;overflow=hidden;rotatable=0;points=[[0,0.5],[1,0.5]];portConstraint=eastwest;whiteSpace=wrap;html=1;fontColor=#FFFFFF;" parent="_kPhk2gCEdoSoz-p3HK3-104" vertex="1">
          <mxGeometry y="286" width="340" height="26" as="geometry" />
        </mxCell>
        <mxCell id="_kPhk2gCEdoSoz-p3HK3-116" value="" style="line;strokeWidth=1;fillColor=#5500FF;align=left;verticalAlign=middle;spacingTop=-1;spacingLeft=3;spacingRight=3;rotatable=0;labelPosition=right;points=[];portConstraint=eastwest;strokeColor=#000000;fontColor=#FFFFFF;" parent="_kPhk2gCEdoSoz-p3HK3-104" vertex="1">
          <mxGeometry y="312" width="340" height="8" as="geometry" />
        </mxCell>
        <mxCell id="_kPhk2gCEdoSoz-p3HK3-117" value="+ CreateEventGUI()" style="text;strokeColor=#000000;fillColor=#5500FF;align=left;verticalAlign=top;spacingLeft=4;spacingRight=4;overflow=hidden;rotatable=0;points=[[0,0.5],[1,0.5]];portConstraint=eastwest;whiteSpace=wrap;html=1;fontColor=#FFFFFF;" parent="_kPhk2gCEdoSoz-p3HK3-104" vertex="1">
          <mxGeometry y="320" width="340" height="26" as="geometry" />
        </mxCell>
        <mxCell id="_kPhk2gCEdoSoz-p3HK3-118" value="+btnUploadPhotosPress(): void" style="text;strokeColor=#000000;fillColor=#5500FF;align=left;verticalAlign=top;spacingLeft=4;spacingRight=4;overflow=hidden;rotatable=0;points=[[0,0.5],[1,0.5]];portConstraint=eastwest;whiteSpace=wrap;html=1;fontColor=#FFFFFF;" parent="_kPhk2gCEdoSoz-p3HK3-104" vertex="1">
          <mxGeometry y="346" width="340" height="26" as="geometry" />
        </mxCell>
        <mxCell id="_kPhk2gCEdoSoz-p3HK3-119" value="+btnSelectLocationPress(): void" style="text;align=left;verticalAlign=top;spacingLeft=4;spacingRight=4;overflow=hidden;rotatable=0;points=[[0,0.5],[1,0.5]];portConstraint=eastwest;whiteSpace=wrap;html=1;strokeColor=#000000;fillColor=#5500FF;fontColor=#FFFFFF;" parent="_kPhk2gCEdoSoz-p3HK3-104" vertex="1">
          <mxGeometry y="372" width="340" height="26" as="geometry" />
        </mxCell>
        <mxCell id="_kPhk2gCEdoSoz-p3HK3-120" value="+btnSelectDateTimePress(): void" style="text;strokeColor=#000000;fillColor=#5500FF;align=left;verticalAlign=top;spacingLeft=4;spacingRight=4;overflow=hidden;rotatable=0;points=[[0,0.5],[1,0.5]];portConstraint=eastwest;whiteSpace=wrap;html=1;fontColor=#FFFFFF;" parent="_kPhk2gCEdoSoz-p3HK3-104" vertex="1">
          <mxGeometry y="398" width="340" height="26" as="geometry" />
        </mxCell>
        <mxCell id="_kPhk2gCEdoSoz-p3HK3-121" value="+btnSelectCategoriesPress(): void" style="text;align=left;verticalAlign=top;spacingLeft=4;spacingRight=4;overflow=hidden;rotatable=0;points=[[0,0.5],[1,0.5]];portConstraint=eastwest;whiteSpace=wrap;html=1;strokeColor=#000000;fillColor=#5500FF;fontColor=#FFFFFF;" parent="_kPhk2gCEdoSoz-p3HK3-104" vertex="1">
          <mxGeometry y="424" width="340" height="26" as="geometry" />
        </mxCell>
        <mxCell id="_kPhk2gCEdoSoz-p3HK3-122" value="+btnHomePress(): void" style="text;strokeColor=#000000;fillColor=#5500FF;align=left;verticalAlign=top;spacingLeft=4;spacingRight=4;overflow=hidden;rotatable=0;points=[[0,0.5],[1,0.5]];portConstraint=eastwest;whiteSpace=wrap;html=1;fontColor=#FFFFFF;" parent="_kPhk2gCEdoSoz-p3HK3-104" vertex="1">
          <mxGeometry y="450" width="340" height="26" as="geometry" />
        </mxCell>
        <mxCell id="_kPhk2gCEdoSoz-p3HK3-123" value="+btnSearchPress(): void" style="text;strokeColor=#000000;fillColor=#5500FF;align=left;verticalAlign=top;spacingLeft=4;spacingRight=4;overflow=hidden;rotatable=0;points=[[0,0.5],[1,0.5]];portConstraint=eastwest;whiteSpace=wrap;html=1;fontColor=#FFFFFF;" parent="_kPhk2gCEdoSoz-p3HK3-104" vertex="1">
          <mxGeometry y="476" width="340" height="26" as="geometry" />
        </mxCell>
        <mxCell id="_kPhk2gCEdoSoz-p3HK3-124" value="+btnProfilePress(): void" style="text;strokeColor=#000000;fillColor=#5500FF;align=left;verticalAlign=top;spacingLeft=4;spacingRight=4;overflow=hidden;rotatable=0;points=[[0,0.5],[1,0.5]];portConstraint=eastwest;whiteSpace=wrap;html=1;fontColor=#FFFFFF;" parent="_kPhk2gCEdoSoz-p3HK3-104" vertex="1">
          <mxGeometry y="502" width="340" height="26" as="geometry" />
        </mxCell>
        <mxCell id="_kPhk2gCEdoSoz-p3HK3-125" value="&lt;b&gt;&lt;font style=&quot;font-size: 15px;&quot;&gt;Manage Events Package&lt;/font&gt;&lt;/b&gt;" style="text;html=1;align=center;verticalAlign=middle;resizable=0;points=[];autosize=1;strokeColor=none;fillColor=none;" parent="1" vertex="1">
          <mxGeometry x="-1813" y="788" width="192" height="30" as="geometry" />
        </mxCell>
        <mxCell id="_kPhk2gCEdoSoz-p3HK3-126" style="edgeStyle=orthogonalEdgeStyle;rounded=0;orthogonalLoop=1;jettySize=auto;html=1;exitX=1;exitY=0.5;exitDx=0;exitDy=0;entryX=1.002;entryY=0.276;entryDx=0;entryDy=0;entryPerimeter=0;endArrow=none;startFill=0;" parent="1" source="_kPhk2gCEdoSoz-p3HK3-30" target="TtvQXbVJvoLlcyAV71Qk-136" edge="1">
          <mxGeometry relative="1" as="geometry">
            <Array as="points">
              <mxPoint x="-1344" y="960" />
              <mxPoint x="-1344" y="336" />
            </Array>
          </mxGeometry>
        </mxCell>
        <mxCell id="_kPhk2gCEdoSoz-p3HK3-127" value="1" style="text;html=1;align=center;verticalAlign=middle;resizable=0;points=[];autosize=1;strokeColor=none;fillColor=none;" parent="1" vertex="1">
          <mxGeometry x="-1497" y="309" width="25" height="26" as="geometry" />
        </mxCell>
        <mxCell id="_kPhk2gCEdoSoz-p3HK3-128" value="1" style="text;html=1;align=center;verticalAlign=middle;resizable=0;points=[];autosize=1;strokeColor=none;fillColor=none;" parent="1" vertex="1">
          <mxGeometry x="-1384" y="936" width="25" height="26" as="geometry" />
        </mxCell>
        <mxCell id="-ft_6paZabJSjul7Jqng-2" value="&lt;div&gt;GoogleMapsController&lt;/div&gt;" style="swimlane;fontStyle=1;align=center;verticalAlign=top;childLayout=stackLayout;horizontal=1;startSize=26;horizontalStack=0;resizeParent=1;resizeParentMax=0;resizeLast=0;collapsible=1;marginBottom=0;whiteSpace=wrap;html=1;fillColor=light-dark(#FFFF00,#FFFF33);strokeColor=#000000;fontSize=12;" parent="1" vertex="1" collapsed="1">
          <mxGeometry x="-1823" y="-184" width="185" height="26" as="geometry">
            <mxRectangle x="-1530" y="43" width="370" height="338" as="alternateBounds" />
          </mxGeometry>
        </mxCell>
        <mxCell id="-ft_6paZabJSjul7Jqng-3" value="" style="line;strokeWidth=1;fillColor=light-dark(#FFFF00,#FFFF33);align=left;verticalAlign=middle;spacingTop=-1;spacingLeft=3;spacingRight=3;rotatable=0;labelPosition=right;points=[];portConstraint=eastwest;strokeColor=#000000;fontSize=12;" parent="-ft_6paZabJSjul7Jqng-2" vertex="1">
          <mxGeometry y="26" width="370" height="26" as="geometry" />
        </mxCell>
        <mxCell id="-ft_6paZabJSjul7Jqng-4" value="&lt;span id=&quot;docs-internal-guid-d6a1e0e8-7fff-de1d-1923-bc7bafedda56&quot; style=&quot;color: rgb(0, 0, 0); background-color: transparent; font-weight: 400; font-style: normal; font-variant: normal; text-decoration: none; vertical-align: baseline; white-space: pre-wrap;&quot;&gt;+GoogleMapsController()&lt;/span&gt;" style="text;strokeColor=#000000;fillColor=light-dark(#FFFF00,#FFFF33);align=left;verticalAlign=top;spacingLeft=4;spacingRight=4;overflow=hidden;rotatable=0;points=[[0,0.5],[1,0.5]];portConstraint=eastwest;whiteSpace=wrap;html=1;fontSize=12;fontFamily=Helvetica;" parent="-ft_6paZabJSjul7Jqng-2" vertex="1">
          <mxGeometry y="52" width="370" height="26" as="geometry" />
        </mxCell>
        <mxCell id="-ft_6paZabJSjul7Jqng-5" value="&lt;span id=&quot;docs-internal-guid-0be6493f-7fff-0d05-1685-69c79083d9bf&quot; style=&quot;color: rgb(0, 0, 0); background-color: transparent; font-weight: 400; font-style: normal; font-variant: normal; text-decoration: none; vertical-align: baseline; white-space: pre-wrap;&quot;&gt;+initializeMap(userLocation: String): void&lt;/span&gt;" style="text;strokeColor=#000000;fillColor=light-dark(#FFFF00,#FFFF33);align=left;verticalAlign=top;spacingLeft=4;spacingRight=4;overflow=hidden;rotatable=0;points=[[0,0.5],[1,0.5]];portConstraint=eastwest;whiteSpace=wrap;html=1;fontSize=12;fontFamily=Helvetica;" parent="-ft_6paZabJSjul7Jqng-2" vertex="1">
          <mxGeometry y="78" width="370" height="26" as="geometry" />
        </mxCell>
        <mxCell id="-ft_6paZabJSjul7Jqng-6" value="&lt;span id=&quot;docs-internal-guid-9eaee63d-7fff-9d07-9cb7-1ce9de2bac92&quot; style=&quot;color: rgb(0, 0, 0); background-color: transparent; font-weight: 400; font-style: normal; font-variant: normal; text-decoration: none; vertical-align: baseline; white-space: pre-wrap;&quot;&gt;+refreshNearbyEvents(): List&amp;lt;Event&lt;span style=&quot;white-space-collapse: collapse;&quot;&gt;Entity&lt;/span&gt;&amp;gt;&lt;/span&gt;" style="text;strokeColor=#000000;fillColor=light-dark(#FFFF00,#FFFF33);align=left;verticalAlign=top;spacingLeft=4;spacingRight=4;overflow=hidden;rotatable=0;points=[[0,0.5],[1,0.5]];portConstraint=eastwest;whiteSpace=wrap;html=1;fontSize=12;fontFamily=Helvetica;" parent="-ft_6paZabJSjul7Jqng-2" vertex="1">
          <mxGeometry y="104" width="370" height="26" as="geometry" />
        </mxCell>
        <mxCell id="-ft_6paZabJSjul7Jqng-7" value="&lt;span id=&quot;docs-internal-guid-6ca0c2e3-7fff-461d-99db-7a0703d2ad65&quot; style=&quot;color: rgb(0, 0, 0); background-color: transparent; font-weight: 400; font-style: normal; font-variant: normal; text-decoration: none; vertical-align: baseline; white-space: pre-wrap;&quot;&gt;+updateMapRegion(region: MapRegion): void&lt;/span&gt;" style="text;strokeColor=#000000;fillColor=light-dark(#FFFF00,#FFFF33);align=left;verticalAlign=top;spacingLeft=4;spacingRight=4;overflow=hidden;rotatable=0;points=[[0,0.5],[1,0.5]];portConstraint=eastwest;whiteSpace=wrap;html=1;fontSize=12;fontFamily=Helvetica;" parent="-ft_6paZabJSjul7Jqng-2" vertex="1">
          <mxGeometry y="130" width="370" height="26" as="geometry" />
        </mxCell>
        <mxCell id="-ft_6paZabJSjul7Jqng-8" value="&lt;span id=&quot;docs-internal-guid-4de10d57-7fff-c063-aad4-0a80bc095985&quot; style=&quot;color: rgb(0, 0, 0); background-color: transparent; font-weight: 400; font-style: normal; font-variant: normal; text-decoration: none; vertical-align: baseline; white-space: pre-wrap;&quot;&gt;+centerLocation(location: String): void&lt;/span&gt;" style="text;strokeColor=#000000;fillColor=light-dark(#FFFF00,#FFFF33);align=left;verticalAlign=top;spacingLeft=4;spacingRight=4;overflow=hidden;rotatable=0;points=[[0,0.5],[1,0.5]];portConstraint=eastwest;whiteSpace=wrap;html=1;fontSize=12;fontFamily=Helvetica;" parent="-ft_6paZabJSjul7Jqng-2" vertex="1">
          <mxGeometry y="156" width="370" height="26" as="geometry" />
        </mxCell>
        <mxCell id="-ft_6paZabJSjul7Jqng-9" value="&lt;span id=&quot;docs-internal-guid-9f084d05-7fff-9331-f9bb-dea62e5e41d3&quot; style=&quot;color: rgb(0, 0, 0); background-color: transparent; font-weight: 400; font-style: normal; font-variant: normal; text-decoration: none; vertical-align: baseline; white-space: pre-wrap;&quot;&gt;+trackUserLocation(): void&lt;/span&gt;" style="text;strokeColor=#000000;fillColor=light-dark(#FFFF00,#FFFF33);align=left;verticalAlign=top;spacingLeft=4;spacingRight=4;overflow=hidden;rotatable=0;points=[[0,0.5],[1,0.5]];portConstraint=eastwest;whiteSpace=wrap;html=1;fontSize=12;fontFamily=Helvetica;" parent="-ft_6paZabJSjul7Jqng-2" vertex="1">
          <mxGeometry y="182" width="370" height="26" as="geometry" />
        </mxCell>
        <mxCell id="-ft_6paZabJSjul7Jqng-10" value="&lt;p style=&quot;line-height:1.38;margin-top:0pt;margin-bottom:0pt;&quot; dir=&quot;ltr&quot;&gt;&lt;span style=&quot;color: rgb(0, 0, 0); background-color: transparent; font-weight: 400; font-style: normal; font-variant: normal; text-decoration: none; vertical-align: baseline; white-space: pre-wrap;&quot;&gt;+switchToListView(events: List&amp;lt;Event&lt;/span&gt;&lt;span style=&quot;background-color: transparent; color: light-dark(rgb(0, 0, 0), rgb(255, 255, 255));&quot;&gt;Entity&lt;/span&gt;&lt;span style=&quot;background-color: transparent; color: light-dark(rgb(0, 0, 0), rgb(237, 237, 237)); white-space-collapse: preserve;&quot;&gt;&amp;gt;): void&lt;/span&gt;&lt;/p&gt;" style="text;strokeColor=#000000;fillColor=light-dark(#FFFF00,#FFFF33);align=left;verticalAlign=top;spacingLeft=4;spacingRight=4;overflow=hidden;rotatable=0;points=[[0,0.5],[1,0.5]];portConstraint=eastwest;whiteSpace=wrap;html=1;fontSize=12;fontFamily=Helvetica;" parent="-ft_6paZabJSjul7Jqng-2" vertex="1">
          <mxGeometry y="208" width="370" height="26" as="geometry" />
        </mxCell>
        <mxCell id="-ft_6paZabJSjul7Jqng-11" value="&lt;span id=&quot;docs-internal-guid-6e0d70b9-7fff-b59d-0c2d-3e8411d99770&quot; style=&quot;color: rgb(0, 0, 0); background-color: transparent; font-weight: 400; font-style: normal; font-variant: normal; text-decoration: none; vertical-align: baseline; white-space: pre-wrap;&quot;&gt;+selectEvent(promptMessage: String): String&lt;/span&gt;" style="text;strokeColor=#000000;fillColor=light-dark(#FFFF00,#FFFF33);align=left;verticalAlign=top;spacingLeft=4;spacingRight=4;overflow=hidden;rotatable=0;points=[[0,0.5],[1,0.5]];portConstraint=eastwest;whiteSpace=wrap;html=1;fontSize=12;fontFamily=Helvetica;" parent="-ft_6paZabJSjul7Jqng-2" vertex="1">
          <mxGeometry y="234" width="370" height="26" as="geometry" />
        </mxCell>
        <mxCell id="-ft_6paZabJSjul7Jqng-12" value="&lt;span id=&quot;docs-internal-guid-32049899-7fff-dbca-6a06-e15447111bc6&quot; style=&quot;color: rgb(0, 0, 0); background-color: transparent; font-weight: 400; font-style: normal; font-variant: normal; text-decoration: none; vertical-align: baseline; white-space: pre-wrap;&quot;&gt;+calculateDistance(fromLocation: String, toLocation: String): float&lt;/span&gt;" style="text;strokeColor=#000000;fillColor=light-dark(#FFFF00,#FFFF33);align=left;verticalAlign=top;spacingLeft=4;spacingRight=4;overflow=hidden;rotatable=0;points=[[0,0.5],[1,0.5]];portConstraint=eastwest;whiteSpace=wrap;html=1;fontSize=12;fontFamily=Helvetica;" parent="-ft_6paZabJSjul7Jqng-2" vertex="1">
          <mxGeometry y="260" width="370" height="26" as="geometry" />
        </mxCell>
        <mxCell id="-ft_6paZabJSjul7Jqng-13" value="&lt;span id=&quot;docs-internal-guid-7041363d-7fff-a7ae-0191-73dd6e78bbec&quot; style=&quot;color: rgb(0, 0, 0); background-color: transparent; font-weight: 400; font-style: normal; font-variant: normal; text-decoration: none; vertical-align: baseline; white-space: pre-wrap;&quot;&gt;+drawRouteToEvent(event: Event&lt;span style=&quot;white-space-collapse: collapse;&quot;&gt;Entity&lt;/span&gt;): void&lt;/span&gt;" style="text;strokeColor=#000000;fillColor=light-dark(#FFFF00,#FFFF33);align=left;verticalAlign=top;spacingLeft=4;spacingRight=4;overflow=hidden;rotatable=0;points=[[0,0.5],[1,0.5]];portConstraint=eastwest;whiteSpace=wrap;html=1;fontSize=12;fontFamily=Helvetica;" parent="-ft_6paZabJSjul7Jqng-2" vertex="1">
          <mxGeometry y="286" width="370" height="26" as="geometry" />
        </mxCell>
        <mxCell id="-ft_6paZabJSjul7Jqng-14" value="&lt;span id=&quot;docs-internal-guid-3f9d4afa-7fff-5e71-7a61-bf0a2c86a950&quot; style=&quot;color: rgb(0, 0, 0); background-color: transparent; font-weight: 400; font-style: normal; font-variant: normal; text-decoration: none; vertical-align: baseline; white-space: pre-wrap;&quot;&gt;+setZoomLevel(level: int): void&lt;/span&gt;" style="text;strokeColor=#000000;fillColor=light-dark(#FFFF00,#FFFF33);align=left;verticalAlign=top;spacingLeft=4;spacingRight=4;overflow=hidden;rotatable=0;points=[[0,0.5],[1,0.5]];portConstraint=eastwest;whiteSpace=wrap;html=1;fontSize=12;fontFamily=Helvetica;" parent="-ft_6paZabJSjul7Jqng-2" vertex="1">
          <mxGeometry y="312" width="370" height="26" as="geometry" />
        </mxCell>
        <mxCell id="-ft_6paZabJSjul7Jqng-15" value="MapGUI" style="swimlane;fontStyle=1;align=center;verticalAlign=top;childLayout=stackLayout;horizontal=1;startSize=26;horizontalStack=0;resizeParent=1;resizeParentMax=0;resizeLast=0;collapsible=1;marginBottom=0;whiteSpace=wrap;html=1;fillColor=#5500FF;fontColor=#FFFFFF;strokeColor=#000000;" parent="1" vertex="1" collapsed="1">
          <mxGeometry x="-1623" y="-188" width="170" height="26" as="geometry">
            <mxRectangle x="-1826" y="-2102" width="220" height="424" as="alternateBounds" />
          </mxGeometry>
        </mxCell>
        <mxCell id="-ft_6paZabJSjul7Jqng-16" value="-fldSearch: Field" style="text;strokeColor=#000000;fillColor=#5500FF;align=left;verticalAlign=top;spacingLeft=4;spacingRight=4;overflow=hidden;rotatable=0;points=[[0,0.5],[1,0.5]];portConstraint=eastwest;whiteSpace=wrap;html=1;fontColor=#FFFFFF;" parent="-ft_6paZabJSjul7Jqng-15" vertex="1">
          <mxGeometry y="26" width="220" height="26" as="geometry" />
        </mxCell>
        <mxCell id="-ft_6paZabJSjul7Jqng-17" value="-btnListView: Button" style="text;strokeColor=#000000;fillColor=#5500FF;align=left;verticalAlign=top;spacingLeft=4;spacingRight=4;overflow=hidden;rotatable=0;points=[[0,0.5],[1,0.5]];portConstraint=eastwest;whiteSpace=wrap;html=1;fontColor=#FFFFFF;" parent="-ft_6paZabJSjul7Jqng-15" vertex="1">
          <mxGeometry y="52" width="220" height="26" as="geometry" />
        </mxCell>
        <mxCell id="-ft_6paZabJSjul7Jqng-18" value="-btnCenterLocation: Button" style="text;strokeColor=#000000;fillColor=#5500FF;align=left;verticalAlign=top;spacingLeft=4;spacingRight=4;overflow=hidden;rotatable=0;points=[[0,0.5],[1,0.5]];portConstraint=eastwest;whiteSpace=wrap;html=1;fontColor=#FFFFFF;" parent="-ft_6paZabJSjul7Jqng-15" vertex="1">
          <mxGeometry y="78" width="220" height="26" as="geometry" />
        </mxCell>
        <mxCell id="-ft_6paZabJSjul7Jqng-19" value="-btnPin: Button" style="text;align=left;verticalAlign=top;spacingLeft=4;spacingRight=4;overflow=hidden;rotatable=0;points=[[0,0.5],[1,0.5]];portConstraint=eastwest;whiteSpace=wrap;html=1;strokeColor=#000000;fontColor=#FFFFFF;fillColor=#5500FF;" parent="-ft_6paZabJSjul7Jqng-15" vertex="1">
          <mxGeometry y="104" width="220" height="26" as="geometry" />
        </mxCell>
        <mxCell id="-ft_6paZabJSjul7Jqng-20" value="-btnHome: Button&lt;span style=&quot;white-space: pre;&quot;&gt;&#x9;&lt;/span&gt;" style="text;strokeColor=#000000;fillColor=#5500FF;align=left;verticalAlign=top;spacingLeft=4;spacingRight=4;overflow=hidden;rotatable=0;points=[[0,0.5],[1,0.5]];portConstraint=eastwest;whiteSpace=wrap;html=1;fontColor=#FFFFFF;" parent="-ft_6paZabJSjul7Jqng-15" vertex="1">
          <mxGeometry y="130" width="220" height="26" as="geometry" />
        </mxCell>
        <mxCell id="-ft_6paZabJSjul7Jqng-21" value="-btnSearch: Button" style="text;strokeColor=#000000;fillColor=#5500FF;align=left;verticalAlign=top;spacingLeft=4;spacingRight=4;overflow=hidden;rotatable=0;points=[[0,0.5],[1,0.5]];portConstraint=eastwest;whiteSpace=wrap;html=1;fontColor=#FFFFFF;" parent="-ft_6paZabJSjul7Jqng-15" vertex="1">
          <mxGeometry y="156" width="220" height="26" as="geometry" />
        </mxCell>
        <mxCell id="-ft_6paZabJSjul7Jqng-22" value="-btnProfile: Button" style="text;strokeColor=#000000;fillColor=#5500FF;align=left;verticalAlign=top;spacingLeft=4;spacingRight=4;overflow=hidden;rotatable=0;points=[[0,0.5],[1,0.5]];portConstraint=eastwest;whiteSpace=wrap;html=1;fontColor=#FFFFFF;" parent="-ft_6paZabJSjul7Jqng-15" vertex="1">
          <mxGeometry y="182" width="220" height="26" as="geometry" />
        </mxCell>
        <mxCell id="-ft_6paZabJSjul7Jqng-23" value="" style="line;strokeWidth=1;fillColor=#5500FF;align=left;verticalAlign=middle;spacingTop=-1;spacingLeft=3;spacingRight=3;rotatable=0;labelPosition=right;points=[];portConstraint=eastwest;strokeColor=#000000;fontColor=#FFFFFF;" parent="-ft_6paZabJSjul7Jqng-15" vertex="1">
          <mxGeometry y="208" width="220" height="8" as="geometry" />
        </mxCell>
        <mxCell id="-ft_6paZabJSjul7Jqng-24" value="&lt;div align=&quot;left&quot;&gt;+ MapGUI()&lt;/div&gt;" style="text;align=left;verticalAlign=middle;spacingLeft=4;spacingRight=4;overflow=hidden;rotatable=0;points=[[0,0.5],[1,0.5]];portConstraint=eastwest;whiteSpace=wrap;html=1;strokeColor=#000000;fontColor=#FFFFFF;fillColor=#5500FF;" parent="-ft_6paZabJSjul7Jqng-15" vertex="1">
          <mxGeometry y="216" width="220" height="26" as="geometry" />
        </mxCell>
        <mxCell id="-ft_6paZabJSjul7Jqng-25" value="+ btnHomePress(): void" style="text;strokeColor=#000000;fillColor=#5500FF;align=left;verticalAlign=top;spacingLeft=4;spacingRight=4;overflow=hidden;rotatable=0;points=[[0,0.5],[1,0.5]];portConstraint=eastwest;whiteSpace=wrap;html=1;fontColor=#FFFFFF;" parent="-ft_6paZabJSjul7Jqng-15" vertex="1">
          <mxGeometry y="242" width="220" height="26" as="geometry" />
        </mxCell>
        <mxCell id="-ft_6paZabJSjul7Jqng-26" value="+ btnSearchPress(): void" style="text;strokeColor=#000000;fillColor=#5500FF;align=left;verticalAlign=top;spacingLeft=4;spacingRight=4;overflow=hidden;rotatable=0;points=[[0,0.5],[1,0.5]];portConstraint=eastwest;whiteSpace=wrap;html=1;fontColor=#FFFFFF;" parent="-ft_6paZabJSjul7Jqng-15" vertex="1">
          <mxGeometry y="268" width="220" height="26" as="geometry" />
        </mxCell>
        <mxCell id="-ft_6paZabJSjul7Jqng-27" value="+ btnProfilePress(): void" style="text;strokeColor=#000000;fillColor=#5500FF;align=left;verticalAlign=top;spacingLeft=4;spacingRight=4;overflow=hidden;rotatable=0;points=[[0,0.5],[1,0.5]];portConstraint=eastwest;whiteSpace=wrap;html=1;fontColor=#FFFFFF;" parent="-ft_6paZabJSjul7Jqng-15" vertex="1">
          <mxGeometry y="294" width="220" height="26" as="geometry" />
        </mxCell>
        <mxCell id="-ft_6paZabJSjul7Jqng-28" value="+ btnPinPress(eventId: Integer): void&lt;div&gt;&lt;br&gt;&lt;/div&gt;" style="text;align=left;verticalAlign=top;spacingLeft=4;spacingRight=4;overflow=hidden;rotatable=0;points=[[0,0.5],[1,0.5]];portConstraint=eastwest;whiteSpace=wrap;html=1;fontStyle=0;strokeColor=#000000;fontColor=#FFFFFF;fillColor=#5500FF;" parent="-ft_6paZabJSjul7Jqng-15" vertex="1">
          <mxGeometry y="320" width="220" height="26" as="geometry" />
        </mxCell>
        <mxCell id="-ft_6paZabJSjul7Jqng-29" value="+ btnCenterLocationPress(): void" style="text;align=left;verticalAlign=top;spacingLeft=4;spacingRight=4;overflow=hidden;rotatable=0;points=[[0,0.5],[1,0.5]];portConstraint=eastwest;whiteSpace=wrap;html=1;fontStyle=0;strokeColor=#000000;fontColor=#FFFFFF;fillColor=#5500FF;" parent="-ft_6paZabJSjul7Jqng-15" vertex="1">
          <mxGeometry y="346" width="220" height="26" as="geometry" />
        </mxCell>
        <mxCell id="-ft_6paZabJSjul7Jqng-30" value="+ btnListViewPress(): void" style="text;align=left;verticalAlign=top;spacingLeft=4;spacingRight=4;overflow=hidden;rotatable=0;points=[[0,0.5],[1,0.5]];portConstraint=eastwest;whiteSpace=wrap;html=1;fontStyle=0;strokeColor=#000000;fontColor=#FFFFFF;fillColor=#5500FF;" parent="-ft_6paZabJSjul7Jqng-15" vertex="1">
          <mxGeometry y="372" width="220" height="26" as="geometry" />
        </mxCell>
        <mxCell id="-ft_6paZabJSjul7Jqng-31" value="&lt;div&gt;+ fldSearchSubmitPressed(): void&lt;/div&gt;&lt;div&gt;&lt;br&gt;&lt;/div&gt;" style="text;align=left;verticalAlign=top;spacingLeft=4;spacingRight=4;overflow=hidden;rotatable=0;points=[[0,0.5],[1,0.5]];portConstraint=eastwest;whiteSpace=wrap;html=1;strokeColor=#000000;fontColor=#FFFFFF;fillColor=#5500FF;" parent="-ft_6paZabJSjul7Jqng-15" vertex="1">
          <mxGeometry y="398" width="220" height="26" as="geometry" />
        </mxCell>
        <mxCell id="-ft_6paZabJSjul7Jqng-32" value="ListGUI" style="swimlane;fontStyle=1;align=center;verticalAlign=top;childLayout=stackLayout;horizontal=1;startSize=26;horizontalStack=0;resizeParent=1;resizeParentMax=0;resizeLast=0;collapsible=1;marginBottom=0;whiteSpace=wrap;html=1;fillColor=#5500FF;fontColor=#FFFFFF;strokeColor=#000000;" parent="1" vertex="1" collapsed="1">
          <mxGeometry x="-1623" y="-140" width="170" height="26" as="geometry">
            <mxRectangle x="-1820" y="-1589" width="320" height="450" as="alternateBounds" />
          </mxGeometry>
        </mxCell>
        <mxCell id="-ft_6paZabJSjul7Jqng-33" value="-btnHome: Button&lt;span style=&quot;white-space: pre;&quot;&gt;&#x9;&lt;/span&gt;" style="text;strokeColor=#000000;fillColor=#5500FF;align=left;verticalAlign=top;spacingLeft=4;spacingRight=4;overflow=hidden;rotatable=0;points=[[0,0.5],[1,0.5]];portConstraint=eastwest;whiteSpace=wrap;html=1;fontColor=#FFFFFF;" parent="-ft_6paZabJSjul7Jqng-32" vertex="1">
          <mxGeometry y="26" width="320" height="26" as="geometry" />
        </mxCell>
        <mxCell id="-ft_6paZabJSjul7Jqng-34" value="-btnSearch: Button" style="text;strokeColor=#000000;fillColor=#5500FF;align=left;verticalAlign=top;spacingLeft=4;spacingRight=4;overflow=hidden;rotatable=0;points=[[0,0.5],[1,0.5]];portConstraint=eastwest;whiteSpace=wrap;html=1;fontColor=#FFFFFF;" parent="-ft_6paZabJSjul7Jqng-32" vertex="1">
          <mxGeometry y="52" width="320" height="26" as="geometry" />
        </mxCell>
        <mxCell id="-ft_6paZabJSjul7Jqng-35" value="-btnProfile: Button" style="text;strokeColor=#000000;fillColor=#5500FF;align=left;verticalAlign=top;spacingLeft=4;spacingRight=4;overflow=hidden;rotatable=0;points=[[0,0.5],[1,0.5]];portConstraint=eastwest;whiteSpace=wrap;html=1;fontColor=#FFFFFF;" parent="-ft_6paZabJSjul7Jqng-32" vertex="1">
          <mxGeometry y="78" width="320" height="26" as="geometry" />
        </mxCell>
        <mxCell id="-ft_6paZabJSjul7Jqng-36" value="-fldSearch: Field" style="text;align=left;verticalAlign=top;spacingLeft=4;spacingRight=4;overflow=hidden;rotatable=0;points=[[0,0.5],[1,0.5]];portConstraint=eastwest;whiteSpace=wrap;html=1;strokeColor=#000000;fillColor=#5500FF;fontColor=#FFFFFF;" parent="-ft_6paZabJSjul7Jqng-32" vertex="1">
          <mxGeometry y="104" width="320" height="26" as="geometry" />
        </mxCell>
        <mxCell id="-ft_6paZabJSjul7Jqng-37" value="-btnMapView: Button" style="text;strokeColor=#000000;fillColor=#5500FF;align=left;verticalAlign=top;spacingLeft=4;spacingRight=4;overflow=hidden;rotatable=0;points=[[0,0.5],[1,0.5]];portConstraint=eastwest;whiteSpace=wrap;html=1;fontColor=#FFFFFF;" parent="-ft_6paZabJSjul7Jqng-32" vertex="1">
          <mxGeometry y="130" width="320" height="26" as="geometry" />
        </mxCell>
        <mxCell id="-ft_6paZabJSjul7Jqng-38" value="-btnViewAllFilters: Button" style="text;align=left;verticalAlign=top;spacingLeft=4;spacingRight=4;overflow=hidden;rotatable=0;points=[[0,0.5],[1,0.5]];portConstraint=eastwest;whiteSpace=wrap;html=1;strokeColor=#000000;fillColor=#5500FF;fontColor=#FFFFFF;" parent="-ft_6paZabJSjul7Jqng-32" vertex="1">
          <mxGeometry y="156" width="320" height="26" as="geometry" />
        </mxCell>
        <mxCell id="-ft_6paZabJSjul7Jqng-39" value="-btnClearFilters: Button" style="text;strokeColor=#000000;fillColor=#5500FF;align=left;verticalAlign=top;spacingLeft=4;spacingRight=4;overflow=hidden;rotatable=0;points=[[0,0.5],[1,0.5]];portConstraint=eastwest;whiteSpace=wrap;html=1;fontColor=#FFFFFF;" parent="-ft_6paZabJSjul7Jqng-32" vertex="1">
          <mxGeometry y="182" width="320" height="26" as="geometry" />
        </mxCell>
        <mxCell id="-ft_6paZabJSjul7Jqng-40" value="&lt;font style=&quot;&quot;&gt;-eventTabGroups:&amp;nbsp;&lt;span style=&quot;text-align: center;&quot;&gt;EventTabListGUI&lt;/span&gt;[]&lt;/font&gt;" style="text;strokeColor=#000000;fillColor=#9E6CFF;align=left;verticalAlign=top;spacingLeft=4;spacingRight=4;overflow=hidden;rotatable=0;points=[[0,0.5],[1,0.5]];portConstraint=eastwest;whiteSpace=wrap;html=1;fontColor=#FFFFFF;" parent="-ft_6paZabJSjul7Jqng-32" vertex="1">
          <mxGeometry y="208" width="320" height="26" as="geometry" />
        </mxCell>
        <mxCell id="-ft_6paZabJSjul7Jqng-41" value="" style="line;strokeWidth=1;fillColor=#5500FF;align=left;verticalAlign=middle;spacingTop=-1;spacingLeft=3;spacingRight=3;rotatable=0;labelPosition=right;points=[];portConstraint=eastwest;strokeColor=#000000;fontColor=#FFFFFF;" parent="-ft_6paZabJSjul7Jqng-32" vertex="1">
          <mxGeometry y="234" width="320" height="8" as="geometry" />
        </mxCell>
        <mxCell id="-ft_6paZabJSjul7Jqng-42" value="+ ListGUI()" style="text;align=left;verticalAlign=top;spacingLeft=4;spacingRight=4;overflow=hidden;rotatable=0;points=[[0,0.5],[1,0.5]];portConstraint=eastwest;whiteSpace=wrap;html=1;strokeColor=#000000;fillColor=#5500FF;fontColor=#FFFFFF;" parent="-ft_6paZabJSjul7Jqng-32" vertex="1">
          <mxGeometry y="242" width="320" height="26" as="geometry" />
        </mxCell>
        <mxCell id="-ft_6paZabJSjul7Jqng-43" value="+ btnHomePress(): void" style="text;strokeColor=#000000;fillColor=#5500FF;align=left;verticalAlign=top;spacingLeft=4;spacingRight=4;overflow=hidden;rotatable=0;points=[[0,0.5],[1,0.5]];portConstraint=eastwest;whiteSpace=wrap;html=1;fontColor=#FFFFFF;" parent="-ft_6paZabJSjul7Jqng-32" vertex="1">
          <mxGeometry y="268" width="320" height="26" as="geometry" />
        </mxCell>
        <mxCell id="-ft_6paZabJSjul7Jqng-44" value="+ btnSearchPress(): void" style="text;strokeColor=#000000;fillColor=#5500FF;align=left;verticalAlign=top;spacingLeft=4;spacingRight=4;overflow=hidden;rotatable=0;points=[[0,0.5],[1,0.5]];portConstraint=eastwest;whiteSpace=wrap;html=1;fontColor=#FFFFFF;" parent="-ft_6paZabJSjul7Jqng-32" vertex="1">
          <mxGeometry y="294" width="320" height="26" as="geometry" />
        </mxCell>
        <mxCell id="-ft_6paZabJSjul7Jqng-45" value="+ btnProfilePress(): void" style="text;strokeColor=#000000;fillColor=#5500FF;align=left;verticalAlign=top;spacingLeft=4;spacingRight=4;overflow=hidden;rotatable=0;points=[[0,0.5],[1,0.5]];portConstraint=eastwest;whiteSpace=wrap;html=1;fontColor=#FFFFFF;" parent="-ft_6paZabJSjul7Jqng-32" vertex="1">
          <mxGeometry y="320" width="320" height="26" as="geometry" />
        </mxCell>
        <mxCell id="-ft_6paZabJSjul7Jqng-46" value="+ fldSearchSubmitPressed(): void" style="text;align=left;verticalAlign=top;spacingLeft=4;spacingRight=4;overflow=hidden;rotatable=0;points=[[0,0.5],[1,0.5]];portConstraint=eastwest;labelBackgroundColor=none;labelBorderColor=none;textShadow=0;whiteSpace=wrap;html=1;fontColor=#FFFFFF;rounded=0;glass=0;shadow=0;fillColor=#5500FF;gradientColor=none;strokeColor=#000000;" parent="-ft_6paZabJSjul7Jqng-32" vertex="1">
          <mxGeometry y="346" width="320" height="26" as="geometry" />
        </mxCell>
        <mxCell id="-ft_6paZabJSjul7Jqng-47" value="+ btnMapViewPressed(): void" style="text;align=left;verticalAlign=top;spacingLeft=4;spacingRight=4;overflow=hidden;rotatable=0;points=[[0,0.5],[1,0.5]];portConstraint=eastwest;labelBackgroundColor=none;labelBorderColor=none;textShadow=0;whiteSpace=wrap;html=1;fontColor=#FFFFFF;rounded=0;glass=0;shadow=0;fillColor=#5500FF;gradientColor=none;strokeColor=#000000;" parent="-ft_6paZabJSjul7Jqng-32" vertex="1">
          <mxGeometry y="372" width="320" height="26" as="geometry" />
        </mxCell>
        <mxCell id="-ft_6paZabJSjul7Jqng-48" value="+ btnViewAllFiltersPress(): void" style="text;align=left;verticalAlign=top;spacingLeft=4;spacingRight=4;overflow=hidden;rotatable=0;points=[[0,0.5],[1,0.5]];portConstraint=eastwest;labelBackgroundColor=none;labelBorderColor=none;textShadow=0;whiteSpace=wrap;html=1;fontColor=#FFFFFF;rounded=0;glass=0;shadow=0;fillColor=#5500FF;gradientColor=none;strokeColor=#000000;" parent="-ft_6paZabJSjul7Jqng-32" vertex="1">
          <mxGeometry y="398" width="320" height="26" as="geometry" />
        </mxCell>
        <mxCell id="-ft_6paZabJSjul7Jqng-49" value="+ btnClearFiltersPress(): void" style="text;align=left;verticalAlign=top;spacingLeft=4;spacingRight=4;overflow=hidden;rotatable=0;points=[[0,0.5],[1,0.5]];portConstraint=eastwest;labelBackgroundColor=none;labelBorderColor=none;textShadow=0;whiteSpace=wrap;html=1;fontColor=#FFFFFF;rounded=0;glass=0;shadow=0;fillColor=#5500FF;gradientColor=none;strokeColor=#000000;" parent="-ft_6paZabJSjul7Jqng-32" vertex="1">
          <mxGeometry y="424" width="320" height="26" as="geometry" />
        </mxCell>
        <mxCell id="-ft_6paZabJSjul7Jqng-50" value="EventTabListGUI" style="swimlane;fontStyle=1;align=center;verticalAlign=top;childLayout=stackLayout;horizontal=1;startSize=26;horizontalStack=0;resizeParent=1;resizeParentMax=0;resizeLast=0;collapsible=1;marginBottom=0;whiteSpace=wrap;html=1;fillColor=#5500FF;strokeColor=#000000;fontColor=#FFFFFF;" parent="1" vertex="1" collapsed="1">
          <mxGeometry x="-1623" y="-91" width="170" height="26" as="geometry">
            <mxRectangle x="-1391" y="-1562" width="290" height="424" as="alternateBounds" />
          </mxGeometry>
        </mxCell>
        <mxCell id="-ft_6paZabJSjul7Jqng-51" value="-eventImg: Image" style="text;strokeColor=#000000;fillColor=#5500FF;align=left;verticalAlign=top;spacingLeft=4;spacingRight=4;overflow=hidden;rotatable=0;points=[[0,0.5],[1,0.5]];portConstraint=eastwest;whiteSpace=wrap;html=1;fontColor=#FFFFFF;" parent="-ft_6paZabJSjul7Jqng-50" vertex="1">
          <mxGeometry y="26" width="290" height="26" as="geometry" />
        </mxCell>
        <mxCell id="-ft_6paZabJSjul7Jqng-52" value="-eventName: String" style="text;strokeColor=#000000;fillColor=#5500FF;align=left;verticalAlign=top;spacingLeft=4;spacingRight=4;overflow=hidden;rotatable=0;points=[[0,0.5],[1,0.5]];portConstraint=eastwest;whiteSpace=wrap;html=1;fontColor=#FFFFFF;" parent="-ft_6paZabJSjul7Jqng-50" vertex="1">
          <mxGeometry y="52" width="290" height="26" as="geometry" />
        </mxCell>
        <mxCell id="-ft_6paZabJSjul7Jqng-53" value="-eventDistance: float" style="text;strokeColor=#000000;fillColor=#5500FF;align=left;verticalAlign=top;spacingLeft=4;spacingRight=4;overflow=hidden;rotatable=0;points=[[0,0.5],[1,0.5]];portConstraint=eastwest;whiteSpace=wrap;html=1;fontColor=#FFFFFF;" parent="-ft_6paZabJSjul7Jqng-50" vertex="1">
          <mxGeometry y="78" width="290" height="26" as="geometry" />
        </mxCell>
        <mxCell id="-ft_6paZabJSjul7Jqng-54" value="-eventL&lt;span style=&quot;background-color: transparent;&quot;&gt;ikeCounter: integer&lt;/span&gt;" style="text;strokeColor=#000000;fillColor=#5500FF;align=left;verticalAlign=top;spacingLeft=4;spacingRight=4;overflow=hidden;rotatable=0;points=[[0,0.5],[1,0.5]];portConstraint=eastwest;whiteSpace=wrap;html=1;fontColor=#FFFFFF;" parent="-ft_6paZabJSjul7Jqng-50" vertex="1">
          <mxGeometry y="104" width="290" height="26" as="geometry" />
        </mxCell>
        <mxCell id="-ft_6paZabJSjul7Jqng-55" value="-userHasLiked: bool" style="text;strokeColor=#000000;fillColor=#5500FF;align=left;verticalAlign=top;spacingLeft=4;spacingRight=4;overflow=hidden;rotatable=0;points=[[0,0.5],[1,0.5]];portConstraint=eastwest;whiteSpace=wrap;html=1;fontColor=#FFFFFF;" parent="-ft_6paZabJSjul7Jqng-50" vertex="1">
          <mxGeometry y="130" width="290" height="26" as="geometry" />
        </mxCell>
        <mxCell id="-ft_6paZabJSjul7Jqng-56" value="-btnLikeEvent: Button" style="text;strokeColor=#000000;fillColor=#5500FF;align=left;verticalAlign=top;spacingLeft=4;spacingRight=4;overflow=hidden;rotatable=0;points=[[0,0.5],[1,0.5]];portConstraint=eastwest;whiteSpace=wrap;html=1;fontColor=#FFFFFF;" parent="-ft_6paZabJSjul7Jqng-50" vertex="1">
          <mxGeometry y="156" width="290" height="26" as="geometry" />
        </mxCell>
        <mxCell id="-ft_6paZabJSjul7Jqng-57" value="-btnShareEvent: Button" style="text;strokeColor=#000000;fillColor=#5500FF;align=left;verticalAlign=top;spacingLeft=4;spacingRight=4;overflow=hidden;rotatable=0;points=[[0,0.5],[1,0.5]];portConstraint=eastwest;whiteSpace=wrap;html=1;fontColor=#FFFFFF;" parent="-ft_6paZabJSjul7Jqng-50" vertex="1">
          <mxGeometry y="182" width="290" height="26" as="geometry" />
        </mxCell>
        <mxCell id="-ft_6paZabJSjul7Jqng-58" value="-btnEventReminder: Button" style="text;strokeColor=#000000;fillColor=#5500FF;align=left;verticalAlign=top;spacingLeft=4;spacingRight=4;overflow=hidden;rotatable=0;points=[[0,0.5],[1,0.5]];portConstraint=eastwest;whiteSpace=wrap;html=1;fontColor=#FFFFFF;" parent="-ft_6paZabJSjul7Jqng-50" vertex="1">
          <mxGeometry y="208" width="290" height="26" as="geometry" />
        </mxCell>
        <mxCell id="-ft_6paZabJSjul7Jqng-59" value="-tabClickableAreaForEventDetails: Button" style="text;strokeColor=#000000;fillColor=#5500FF;align=left;verticalAlign=top;spacingLeft=4;spacingRight=4;overflow=hidden;rotatable=0;points=[[0,0.5],[1,0.5]];portConstraint=eastwest;whiteSpace=wrap;html=1;fontColor=#FFFFFF;" parent="-ft_6paZabJSjul7Jqng-50" vertex="1">
          <mxGeometry y="234" width="290" height="26" as="geometry" />
        </mxCell>
        <mxCell id="-ft_6paZabJSjul7Jqng-60" value="" style="line;strokeWidth=1;fillColor=#5500FF;align=left;verticalAlign=middle;spacingTop=-1;spacingLeft=3;spacingRight=3;rotatable=0;labelPosition=right;points=[];portConstraint=eastwest;strokeColor=#000000;fontColor=#FFFFFF;" parent="-ft_6paZabJSjul7Jqng-50" vertex="1">
          <mxGeometry y="260" width="290" height="8" as="geometry" />
        </mxCell>
        <mxCell id="-ft_6paZabJSjul7Jqng-61" value="+ EventTabListGUI(event: EventEntity)" style="text;strokeColor=#000000;fillColor=#5500FF;align=left;verticalAlign=top;spacingLeft=4;spacingRight=4;overflow=hidden;rotatable=0;points=[[0,0.5],[1,0.5]];portConstraint=eastwest;whiteSpace=wrap;html=1;fontColor=#FFFFFF;" parent="-ft_6paZabJSjul7Jqng-50" vertex="1">
          <mxGeometry y="268" width="290" height="26" as="geometry" />
        </mxCell>
        <mxCell id="-ft_6paZabJSjul7Jqng-62" value="+ btnLikePress(): void" style="text;align=left;verticalAlign=top;spacingLeft=4;spacingRight=4;overflow=hidden;rotatable=0;points=[[0,0.5],[1,0.5]];portConstraint=eastwest;whiteSpace=wrap;html=1;fillColor=#5500FF;strokeColor=#000000;fontColor=#FFFFFF;" parent="-ft_6paZabJSjul7Jqng-50" vertex="1">
          <mxGeometry y="294" width="290" height="26" as="geometry" />
        </mxCell>
        <mxCell id="-ft_6paZabJSjul7Jqng-63" value="+ btnShareEventPress():void" style="text;strokeColor=#000000;fillColor=#5500FF;align=left;verticalAlign=top;spacingLeft=4;spacingRight=4;overflow=hidden;rotatable=0;points=[[0,0.5],[1,0.5]];portConstraint=eastwest;whiteSpace=wrap;html=1;fontColor=#FFFFFF;" parent="-ft_6paZabJSjul7Jqng-50" vertex="1">
          <mxGeometry y="320" width="290" height="26" as="geometry" />
        </mxCell>
        <mxCell id="-ft_6paZabJSjul7Jqng-64" value="+ btnEventReminderPress(): void" style="text;strokeColor=#000000;fillColor=#5500FF;align=left;verticalAlign=top;spacingLeft=4;spacingRight=4;overflow=hidden;rotatable=0;points=[[0,0.5],[1,0.5]];portConstraint=eastwest;whiteSpace=wrap;html=1;fontColor=#FFFFFF;" parent="-ft_6paZabJSjul7Jqng-50" vertex="1">
          <mxGeometry y="346" width="290" height="26" as="geometry" />
        </mxCell>
        <mxCell id="-ft_6paZabJSjul7Jqng-65" value="+ openEventDetails(): void" style="text;strokeColor=#000000;fillColor=#5500FF;align=left;verticalAlign=top;spacingLeft=4;spacingRight=4;overflow=hidden;rotatable=0;points=[[0,0.5],[1,0.5]];portConstraint=eastwest;whiteSpace=wrap;html=1;fontColor=#FFFFFF;" parent="-ft_6paZabJSjul7Jqng-50" vertex="1">
          <mxGeometry y="372" width="290" height="26" as="geometry" />
        </mxCell>
        <mxCell id="-ft_6paZabJSjul7Jqng-66" value="+ showEmptyListMessage(): void" style="text;strokeColor=#000000;fillColor=#5500FF;align=left;verticalAlign=top;spacingLeft=4;spacingRight=4;overflow=hidden;rotatable=0;points=[[0,0.5],[1,0.5]];portConstraint=eastwest;whiteSpace=wrap;html=1;fontColor=#FFFFFF;" parent="-ft_6paZabJSjul7Jqng-50" vertex="1">
          <mxGeometry y="398" width="290" height="26" as="geometry" />
        </mxCell>
        <mxCell id="-ft_6paZabJSjul7Jqng-67" value="FIlterTabsPopUp" style="swimlane;fontStyle=1;align=center;verticalAlign=top;childLayout=stackLayout;horizontal=1;startSize=26;horizontalStack=0;resizeParent=1;resizeParentMax=0;resizeLast=0;collapsible=1;marginBottom=0;whiteSpace=wrap;html=1;fillColor=#5500FF;strokeColor=#000000;fontColor=#FFFFFF;" parent="1" vertex="1" collapsed="1">
          <mxGeometry x="-1622.5" y="-43" width="170" height="26" as="geometry">
            <mxRectangle x="-1502" y="-2035" width="330" height="242" as="alternateBounds" />
          </mxGeometry>
        </mxCell>
        <mxCell id="-ft_6paZabJSjul7Jqng-68" value="-btnCategories: Button[]" style="text;strokeColor=#000000;fillColor=#5500FF;align=left;verticalAlign=top;spacingLeft=4;spacingRight=4;overflow=hidden;rotatable=0;points=[[0,0.5],[1,0.5]];portConstraint=eastwest;whiteSpace=wrap;html=1;fontColor=#FFFFFF;" parent="-ft_6paZabJSjul7Jqng-67" vertex="1">
          <mxGeometry y="26" width="330" height="26" as="geometry" />
        </mxCell>
        <mxCell id="-ft_6paZabJSjul7Jqng-69" value="-btnClear: Button" style="text;strokeColor=#000000;fillColor=#5500FF;align=left;verticalAlign=top;spacingLeft=4;spacingRight=4;overflow=hidden;rotatable=0;points=[[0,0.5],[1,0.5]];portConstraint=eastwest;whiteSpace=wrap;html=1;fontColor=#FFFFFF;" parent="-ft_6paZabJSjul7Jqng-67" vertex="1">
          <mxGeometry y="52" width="330" height="26" as="geometry" />
        </mxCell>
        <mxCell id="-ft_6paZabJSjul7Jqng-70" value="-selectedTags: String[]" style="text;strokeColor=#000000;fillColor=#5500FF;align=left;verticalAlign=top;spacingLeft=4;spacingRight=4;overflow=hidden;rotatable=0;points=[[0,0.5],[1,0.5]];portConstraint=eastwest;whiteSpace=wrap;html=1;fontColor=#FFFFFF;" parent="-ft_6paZabJSjul7Jqng-67" vertex="1">
          <mxGeometry y="78" width="330" height="26" as="geometry" />
        </mxCell>
        <mxCell id="-ft_6paZabJSjul7Jqng-71" value="" style="line;strokeWidth=1;fillColor=#5500FF;align=left;verticalAlign=middle;spacingTop=-1;spacingLeft=3;spacingRight=3;rotatable=0;labelPosition=right;points=[];portConstraint=eastwest;strokeColor=#000000;fontColor=#FFFFFF;" parent="-ft_6paZabJSjul7Jqng-67" vertex="1">
          <mxGeometry y="104" width="330" height="8" as="geometry" />
        </mxCell>
        <mxCell id="-ft_6paZabJSjul7Jqng-72" value="+ populateCategories(eventCategories: String[]):void" style="text;strokeColor=#000000;fillColor=#5500FF;align=left;verticalAlign=top;spacingLeft=4;spacingRight=4;overflow=hidden;rotatable=0;points=[[0,0.5],[1,0.5]];portConstraint=eastwest;whiteSpace=wrap;html=1;fontColor=#FFFFFF;" parent="-ft_6paZabJSjul7Jqng-67" vertex="1">
          <mxGeometry y="112" width="330" height="26" as="geometry" />
        </mxCell>
        <mxCell id="-ft_6paZabJSjul7Jqng-73" value="+ select(button: Button):void" style="text;strokeColor=#000000;fillColor=#5500FF;align=left;verticalAlign=top;spacingLeft=4;spacingRight=4;overflow=hidden;rotatable=0;points=[[0,0.5],[1,0.5]];portConstraint=eastwest;whiteSpace=wrap;html=1;fontColor=#FFFFFF;" parent="-ft_6paZabJSjul7Jqng-67" vertex="1">
          <mxGeometry y="138" width="330" height="26" as="geometry" />
        </mxCell>
        <mxCell id="-ft_6paZabJSjul7Jqng-74" value="+ btnClearPress(): void" style="text;strokeColor=#000000;fillColor=#5500FF;align=left;verticalAlign=top;spacingLeft=4;spacingRight=4;overflow=hidden;rotatable=0;points=[[0,0.5],[1,0.5]];portConstraint=eastwest;whiteSpace=wrap;html=1;fontColor=#FFFFFF;" parent="-ft_6paZabJSjul7Jqng-67" vertex="1">
          <mxGeometry y="164" width="330" height="26" as="geometry" />
        </mxCell>
        <mxCell id="-ft_6paZabJSjul7Jqng-75" value="+ getSelectedTags(): String[]" style="text;strokeColor=#000000;fillColor=#5500FF;align=left;verticalAlign=top;spacingLeft=4;spacingRight=4;overflow=hidden;rotatable=0;points=[[0,0.5],[1,0.5]];portConstraint=eastwest;whiteSpace=wrap;html=1;fontColor=#FFFFFF;" parent="-ft_6paZabJSjul7Jqng-67" vertex="1">
          <mxGeometry y="190" width="330" height="26" as="geometry" />
        </mxCell>
        <mxCell id="-ft_6paZabJSjul7Jqng-76" value="+ popDialog(): void" style="text;strokeColor=#000000;fillColor=#5500FF;align=left;verticalAlign=top;spacingLeft=4;spacingRight=4;overflow=hidden;rotatable=0;points=[[0,0.5],[1,0.5]];portConstraint=eastwest;whiteSpace=wrap;html=1;fontColor=#FFFFFF;" parent="-ft_6paZabJSjul7Jqng-67" vertex="1">
          <mxGeometry y="216" width="330" height="26" as="geometry" />
        </mxCell>
        <mxCell id="-ft_6paZabJSjul7Jqng-77" value="FilterEntity" style="swimlane;fontStyle=1;align=center;verticalAlign=top;childLayout=stackLayout;horizontal=1;startSize=26;horizontalStack=0;resizeParent=1;resizeParentMax=0;resizeLast=0;collapsible=1;marginBottom=0;whiteSpace=wrap;html=1;fillColor=#00FF51;fontColor=#000000;strokeColor=#000000;" parent="1" vertex="1" collapsed="1">
          <mxGeometry x="-1812.5" y="-114" width="150" height="26" as="geometry">
            <mxRectangle x="-498" y="-2035" width="208" height="216" as="alternateBounds" />
          </mxGeometry>
        </mxCell>
        <mxCell id="-ft_6paZabJSjul7Jqng-78" value="- type: String" style="text;strokeColor=#000000;fillColor=#00FF51;align=left;verticalAlign=top;spacingLeft=4;spacingRight=4;overflow=hidden;rotatable=0;points=[[0,0.5],[1,0.5]];portConstraint=eastwest;whiteSpace=wrap;html=1;fontColor=#000000;" parent="-ft_6paZabJSjul7Jqng-77" vertex="1">
          <mxGeometry y="26" width="208" height="26" as="geometry" />
        </mxCell>
        <mxCell id="-ft_6paZabJSjul7Jqng-79" value="- value: String" style="text;strokeColor=#000000;fillColor=#00FF51;align=left;verticalAlign=top;spacingLeft=4;spacingRight=4;overflow=hidden;rotatable=0;points=[[0,0.5],[1,0.5]];portConstraint=eastwest;whiteSpace=wrap;html=1;fontColor=#000000;" parent="-ft_6paZabJSjul7Jqng-77" vertex="1">
          <mxGeometry y="52" width="208" height="26" as="geometry" />
        </mxCell>
        <mxCell id="-ft_6paZabJSjul7Jqng-80" value="" style="line;strokeWidth=1;fillColor=#00FF51;align=left;verticalAlign=middle;spacingTop=-1;spacingLeft=3;spacingRight=3;rotatable=0;labelPosition=right;points=[];portConstraint=eastwest;strokeColor=#000000;fontColor=#000000;" parent="-ft_6paZabJSjul7Jqng-77" vertex="1">
          <mxGeometry y="78" width="208" height="8" as="geometry" />
        </mxCell>
        <mxCell id="-ft_6paZabJSjul7Jqng-81" value="+ Filter(type: String, value: String)" style="text;strokeColor=#000000;fillColor=#00FF51;align=left;verticalAlign=top;spacingLeft=4;spacingRight=4;overflow=hidden;rotatable=0;points=[[0,0.5],[1,0.5]];portConstraint=eastwest;whiteSpace=wrap;html=1;fontColor=#000000;" parent="-ft_6paZabJSjul7Jqng-77" vertex="1">
          <mxGeometry y="86" width="208" height="26" as="geometry" />
        </mxCell>
        <mxCell id="-ft_6paZabJSjul7Jqng-82" value="+ getType(): String" style="text;strokeColor=#000000;fillColor=#00FF51;align=left;verticalAlign=top;spacingLeft=4;spacingRight=4;overflow=hidden;rotatable=0;points=[[0,0.5],[1,0.5]];portConstraint=eastwest;whiteSpace=wrap;html=1;fontColor=#000000;" parent="-ft_6paZabJSjul7Jqng-77" vertex="1">
          <mxGeometry y="112" width="208" height="26" as="geometry" />
        </mxCell>
        <mxCell id="-ft_6paZabJSjul7Jqng-83" value="+ getValue(): String" style="text;strokeColor=#000000;fillColor=#00FF51;align=left;verticalAlign=top;spacingLeft=4;spacingRight=4;overflow=hidden;rotatable=0;points=[[0,0.5],[1,0.5]];portConstraint=eastwest;whiteSpace=wrap;html=1;fontColor=#000000;" parent="-ft_6paZabJSjul7Jqng-77" vertex="1">
          <mxGeometry y="138" width="208" height="26" as="geometry" />
        </mxCell>
        <mxCell id="-ft_6paZabJSjul7Jqng-84" value="+ setValue(value: String): void" style="text;strokeColor=#000000;fillColor=#00FF51;align=left;verticalAlign=top;spacingLeft=4;spacingRight=4;overflow=hidden;rotatable=0;points=[[0,0.5],[1,0.5]];portConstraint=eastwest;whiteSpace=wrap;html=1;fontColor=#000000;" parent="-ft_6paZabJSjul7Jqng-77" vertex="1">
          <mxGeometry y="164" width="208" height="26" as="geometry" />
        </mxCell>
        <mxCell id="-ft_6paZabJSjul7Jqng-85" value="+ setType(type: String): void" style="text;strokeColor=#000000;fillColor=#00FF51;align=left;verticalAlign=top;spacingLeft=4;spacingRight=4;overflow=hidden;rotatable=0;points=[[0,0.5],[1,0.5]];portConstraint=eastwest;whiteSpace=wrap;html=1;fontColor=#000000;" parent="-ft_6paZabJSjul7Jqng-77" vertex="1">
          <mxGeometry y="190" width="208" height="26" as="geometry" />
        </mxCell>
        <mxCell id="-ft_6paZabJSjul7Jqng-86" value="SearchController" style="swimlane;fontStyle=1;align=center;verticalAlign=top;childLayout=stackLayout;horizontal=1;startSize=26;horizontalStack=0;resizeParent=1;resizeParentMax=0;resizeLast=0;collapsible=1;marginBottom=0;whiteSpace=wrap;html=1;fillColor=#FFFF00;fontColor=#000000;strokeColor=default;" parent="1" vertex="1" collapsed="1">
          <mxGeometry x="-1830" y="-61" width="185" height="26" as="geometry">
            <mxRectangle x="-1030" y="-2027" width="325" height="242" as="alternateBounds" />
          </mxGeometry>
        </mxCell>
        <mxCell id="-ft_6paZabJSjul7Jqng-87" value="- filters: List&amp;lt;FilterEntity&amp;gt;" style="text;align=left;verticalAlign=top;spacingLeft=4;spacingRight=4;overflow=hidden;rotatable=0;points=[[0,0.5],[1,0.5]];portConstraint=eastwest;whiteSpace=wrap;html=1;fillColor=#FFFF00;fontColor=#000000;strokeColor=default;" parent="-ft_6paZabJSjul7Jqng-86" vertex="1">
          <mxGeometry y="26" width="325" height="26" as="geometry" />
        </mxCell>
        <mxCell id="-ft_6paZabJSjul7Jqng-88" value="" style="line;strokeWidth=1;align=left;verticalAlign=middle;spacingTop=-1;spacingLeft=3;spacingRight=3;rotatable=0;labelPosition=right;points=[];portConstraint=eastwest;fillColor=#FFFF00;fontColor=#000000;strokeColor=default;" parent="-ft_6paZabJSjul7Jqng-86" vertex="1">
          <mxGeometry y="52" width="325" height="8" as="geometry" />
        </mxCell>
        <mxCell id="-ft_6paZabJSjul7Jqng-89" value="+ SearchController(filters: List&amp;lt;FilterEntity&amp;gt;)" style="text;align=left;verticalAlign=top;spacingLeft=4;spacingRight=4;overflow=hidden;rotatable=0;points=[[0,0.5],[1,0.5]];portConstraint=eastwest;whiteSpace=wrap;html=1;fillColor=#FFFF00;fontColor=#000000;strokeColor=default;" parent="-ft_6paZabJSjul7Jqng-86" vertex="1">
          <mxGeometry y="60" width="325" height="26" as="geometry" />
        </mxCell>
        <mxCell id="-ft_6paZabJSjul7Jqng-90" value="+ searchByKeyword(keyword: String): List&amp;lt;EventEntity&amp;gt;" style="text;align=left;verticalAlign=top;spacingLeft=4;spacingRight=4;overflow=hidden;rotatable=0;points=[[0,0.5],[1,0.5]];portConstraint=eastwest;whiteSpace=wrap;html=1;fillColor=#FFFF00;fontColor=#000000;strokeColor=default;" parent="-ft_6paZabJSjul7Jqng-86" vertex="1">
          <mxGeometry y="86" width="325" height="26" as="geometry" />
        </mxCell>
        <mxCell id="-ft_6paZabJSjul7Jqng-91" value="+ searchByCategory(category: String): List&amp;lt;EventEntity&amp;gt;" style="text;align=left;verticalAlign=top;spacingLeft=4;spacingRight=4;overflow=hidden;rotatable=0;points=[[0,0.5],[1,0.5]];portConstraint=eastwest;whiteSpace=wrap;html=1;fillColor=#FFFF00;fontColor=#000000;strokeColor=default;" parent="-ft_6paZabJSjul7Jqng-86" vertex="1">
          <mxGeometry y="112" width="325" height="26" as="geometry" />
        </mxCell>
        <mxCell id="-ft_6paZabJSjul7Jqng-92" value="+ searchUser(username: String): List&amp;lt;AccountEntity&amp;gt;" style="text;align=left;verticalAlign=top;spacingLeft=4;spacingRight=4;overflow=hidden;rotatable=0;points=[[0,0.5],[1,0.5]];portConstraint=eastwest;whiteSpace=wrap;html=1;fillColor=#FFFF00;fontColor=#000000;strokeColor=default;" parent="-ft_6paZabJSjul7Jqng-86" vertex="1">
          <mxGeometry y="138" width="325" height="26" as="geometry" />
        </mxCell>
        <mxCell id="-ft_6paZabJSjul7Jqng-93" value="+ searchVenue(name: String): List&amp;lt;VenueEntity&amp;gt;" style="text;align=left;verticalAlign=top;spacingLeft=4;spacingRight=4;overflow=hidden;rotatable=0;points=[[0,0.5],[1,0.5]];portConstraint=eastwest;whiteSpace=wrap;html=1;fillColor=#FFFF00;fontColor=#000000;strokeColor=default;" parent="-ft_6paZabJSjul7Jqng-86" vertex="1">
          <mxGeometry y="164" width="325" height="26" as="geometry" />
        </mxCell>
        <mxCell id="-ft_6paZabJSjul7Jqng-94" value="+ applyFilters(filters: List&amp;lt;FilterEntity&amp;gt;): List&amp;lt;EventEntity&amp;gt;" style="text;align=left;verticalAlign=top;spacingLeft=4;spacingRight=4;overflow=hidden;rotatable=0;points=[[0,0.5],[1,0.5]];portConstraint=eastwest;whiteSpace=wrap;html=1;fillColor=#FFFF00;fontColor=#000000;strokeColor=default;" parent="-ft_6paZabJSjul7Jqng-86" vertex="1">
          <mxGeometry y="190" width="325" height="26" as="geometry" />
        </mxCell>
        <mxCell id="-ft_6paZabJSjul7Jqng-95" value="+ resetFilters(): void" style="text;align=left;verticalAlign=top;spacingLeft=4;spacingRight=4;overflow=hidden;rotatable=0;points=[[0,0.5],[1,0.5]];portConstraint=eastwest;whiteSpace=wrap;html=1;fillColor=#FFFF00;fontColor=#000000;strokeColor=default;" parent="-ft_6paZabJSjul7Jqng-86" vertex="1">
          <mxGeometry y="216" width="325" height="26" as="geometry" />
        </mxCell>
        <mxCell id="-ft_6paZabJSjul7Jqng-96" value="Map/List/Search Package" style="text;html=1;align=center;verticalAlign=middle;resizable=0;points=[];autosize=1;strokeColor=none;fillColor=none;fontStyle=1;fontSize=15;" parent="1" vertex="1">
          <mxGeometry x="-1839" y="-243" width="189" height="30" as="geometry" />
        </mxCell>
        <mxCell id="-ft_6paZabJSjul7Jqng-98" value="1" style="text;html=1;align=center;verticalAlign=middle;resizable=0;points=[];autosize=1;strokeColor=none;fillColor=none;fontSize=16;" parent="1" vertex="1">
          <mxGeometry x="-1672.5" y="268.5" width="27" height="31" as="geometry" />
        </mxCell>
        <mxCell id="-ft_6paZabJSjul7Jqng-99" value="1" style="text;html=1;align=center;verticalAlign=middle;resizable=0;points=[];autosize=1;strokeColor=none;fillColor=none;fontSize=16;" parent="1" vertex="1">
          <mxGeometry x="-1883" y="-184" width="27" height="31" as="geometry" />
        </mxCell>
      </root>
    </mxGraphModel>
  </diagram>
</mxfile>
